<?xml version="1.0" encoding="UTF-8" standalone="no"?>
<!-- Created with Inkscape (http://www.inkscape.org/) -->

<svg
   width="213.35646mm"
   height="206.64017mm"
   viewBox="0 0 213.35646 206.64016"
   version="1.1"
   id="svg1"
   xml:space="preserve"
   inkscape:export-filename="blue-cog.png"
   inkscape:export-xdpi="96"
   inkscape:export-ydpi="96"
   inkscape:version="1.3.2 (091e20ef0f, 2023-11-25, custom)"
   sodipodi:docname="blue-cog.svg"
   xmlns:inkscape="http://www.inkscape.org/namespaces/inkscape"
   xmlns:sodipodi="http://sodipodi.sourceforge.net/DTD/sodipodi-0.dtd"
   xmlns="http://www.w3.org/2000/svg"
   xmlns:svg="http://www.w3.org/2000/svg"><sodipodi:namedview
     id="namedview1"
     pagecolor="#505050"
     bordercolor="#ffffff"
     borderopacity="1"
     inkscape:showpageshadow="0"
     inkscape:pageopacity="0"
     inkscape:pagecheckerboard="1"
     inkscape:deskcolor="#505050"
     inkscape:document-units="mm"
     inkscape:zoom="0.83027497"
     inkscape:cx="478.15484"
     inkscape:cy="407.09405"
     inkscape:window-width="1910"
     inkscape:window-height="1165"
     inkscape:window-x="0"
     inkscape:window-y="25"
     inkscape:window-maximized="1"
     inkscape:current-layer="layer1" /><defs
     id="defs1" /><g
     inkscape:label="Layer 1"
     inkscape:groupmode="layer"
     id="layer1"
     transform="translate(3.7303337,-40.745436)"><path
       style="fill:#4994c8;fill-opacity:1"
       d="m 116.89365,233.74462 c -0.22524,-0.25466 -1.24327,-2.13322 -2.26229,-4.17456 -6.6371,-13.29568 -13.63784,-13.26227 -20.439883,0.0975 -2.55389,5.01605 -6.85209,6.01046 -6.8723,1.58995 -0.003,-0.66963 -0.0668,-0.78931 -0.26053,-0.48948 -0.15411,0.23846 -0.2581,0.2711 -0.26053,0.0818 -0.002,-0.17331 0.0965,-0.37726 0.2194,-0.45322 0.12289,-0.076 0.1337,-0.82712 0.024,-1.66926 -0.1097,-0.84213 -0.34505,-2.72178 -0.52301,-4.17699 -0.17796,-1.45521 -0.43714,-2.78945 -0.57595,-2.96497 -0.13881,-0.17553 -0.17558,-0.44342 -0.0817,-0.59532 0.0939,-0.15189 0.0376,-0.27617 -0.12513,-0.27617 -0.1627,0 -0.22731,-0.11083 -0.14359,-0.2463 0.0837,-0.13547 0.0185,-0.32895 -0.14497,-0.42998 -0.20921,-0.1293 -0.24602,0.0807 -0.12433,0.70933 0.12365,0.63876 -0.01,0.46199 -0.46831,-0.62092 -2.91145,-6.8744 -8.91461,-6.70324 -16.31672,0.4652 -3.78195,3.66258 -5.31157,4.32295 -6.97765,3.01241 l -0.69902,-0.54985 0.12782,-2.29443 c 0.0703,-1.26193 0.29849,-2.9195 0.5071,-3.68348 0.2086,-0.76398 0.31594,-1.38906 0.23853,-1.38906 -0.0774,0 -0.0133,-0.1536 0.14254,-0.34133 0.27635,-0.33298 0.7757,-5.08584 0.58959,-5.6118 -0.0515,-0.14552 -0.12238,-0.57654 -0.15753,-0.95782 -0.10263,-1.11328 -0.40411,-1.89482 -1.07813,-2.79484 -0.34691,-0.46323 -0.63075,-0.95658 -0.63075,-1.09633 0,-0.4998 -3.58444,-2.64663 -4.92592,-2.95028 -2.37014,-0.5365 -5.80792,0.42817 -9.39795,2.63714 -3.11331,1.91564 -5.88779,2.32139 -7.16181,1.04736 l -0.80748,-0.80748 0.16517,-1.20501 c 0.20301,-1.48112 1.35741,-3.66382 2.28834,-4.32669 0.84673,-0.60293 3.43007,-5.59924 2.97373,-5.75135 -0.37194,-0.12398 -0.15111,-1.654 0.29602,-2.05095 0.33568,-0.29801 0.34775,-0.82469 0.0355,-1.54805 -0.13916,-0.32234 -0.0852,-0.56965 0.15786,-0.72356 0.27143,-0.17186 0.28031,-0.2349 0.0335,-0.23788 -0.22124,-0.003 -0.28176,-0.21922 -0.17744,-0.63489 0.28282,-1.12682 -1.97542,-4.66082 -2.97827,-4.66082 -0.18974,0 -0.34498,-0.13891 -0.34498,-0.30868 0,-0.16978 -0.0686,-0.24004 -0.15255,-0.15614 -0.0839,0.0839 -0.70898,-0.0996 -1.38906,-0.40776 -1.56384,-0.70864 -5.54663,-0.75473 -8.56754,-0.0992 -1.12166,0.24341 -2.88324,0.44257 -3.91464,0.44257 h -1.87526 l -0.64943,-0.64943 c -1.37076,-1.37076 -0.74225,-3.11457 2.14999,-5.96515 6.64026,-6.54465 8.05683,-9.78888 6.29629,-14.4198 -0.43873,-1.15405 -2.36743,-3.30729 -2.96241,-3.30729 -0.23399,0 -0.14033,0.19573 0.25353,0.52978 0.43584,0.36966 0.0249,0.25475 -1.35975,-0.3802 -1.10742,-0.50783 -3.21212,-1.15722 -4.7625,-1.46943 -1.52797,-0.30769 -3.61156,-0.82709 -4.63021,-1.1542 l -1.85208,-0.59476 -0.0801,-1.22991 c -0.15952,-2.44994 0.70232,-3.27572 6.14239,-5.88541 8.20851,-3.93776 9.92133,-9.1011 4.69075,-14.14039 -0.82095,-0.79093 -1.16522,-1.23467 -0.76504,-0.98608 0.40018,0.24858 0.7276,0.38056 0.7276,0.29328 0,-0.0873 0.31247,0.21266 0.69438,0.66653 0.38191,0.45388 0.74632,0.77329 0.80979,0.70982 0.14274,-0.14274 -1.29287,-1.61719 -1.57996,-1.62273 -0.11445,-0.002 -0.29305,-0.1297 -0.39688,-0.28333 -0.10383,-0.15362 -0.7841,-0.5545 -1.5117,-0.89083 -0.72761,-0.33634 -1.62058,-0.8201 -1.98438,-1.07503 -0.89082,-0.62424 -1.98672,-0.96485 -1.72099,-0.53489 0.14797,0.23943 0.0404,0.23576 -0.42989,-0.0147 -5.17281,-2.75445 -3.76793,-6.41327 2.73515,-7.12329 9.63546,-1.05203 13.9721,-5.94276 10.79373,-12.17287 -0.29154,-0.57148 -0.53008,-1.21754 -0.53008,-1.43569 0,-0.21815 -0.32742,-0.76019 -0.72761,-1.20452 -1.68306,-1.86875 -3.50572,-3.73571 -3.50572,-3.59091 0,0.0857 0.49141,0.68885 1.09203,1.34044 0.60061,0.65159 0.97145,1.18471 0.82408,1.18471 -0.4634,0 -3.48688,-3.41654 -3.90138,-4.40857 -1.40983,-3.374195 0.73441,-4.420055 6.691,-3.26354 7.02408,1.36376 11.15683,0.0317 13.23766,-4.266725 0.85157,-1.759098 0.55439,-5.858821 -0.50492,-6.965651 -0.29066,-0.303708 -0.31813,-0.700546 -0.0421,-0.608541 0.35562,0.118538 0.3674,-0.324042 0.0332,-1.248161 -0.18028,-0.498563 -0.42002,-0.849473 -0.53275,-0.7798 -0.11274,0.06967 -0.13167,0.331225 -0.0421,0.581226 0.24665,0.688289 -0.13574,0.250145 -1.13405,-1.299397 -3.40699,-5.288186 -0.2731,-7.587468 6.10742,-4.48092 5.43956,2.648411 7.49282,3.017616 10.47666,1.883847 4.47815,-1.701565 5.42493,-3.919386 4.61966,-10.821545 -0.73233,-6.276965 -0.47943,-7.184729 2.00165,-7.184729 1.70819,0 2.4964,0.432431 4.19583,2.301956 3.14652,3.461441 6.40692,5.635544 8.45137,5.635544 5.15993,0 8.1463,-3.192741 9.03306,-9.657291 1.02725,-7.488695 4.6436,-7.922198 7.98967,-0.957745 4.650803,9.680099 11.489483,9.761109 17.102523,0.202595 0.86701,-1.476439 1.7951,-3.041621 2.06243,-3.478184 0.29839,-0.487279 0.89711,-0.936433 1.55065,-1.163296 l 1.06459,-0.369547 0.91799,0.435616 c 1.31423,0.623645 1.55544,1.167429 2.11321,4.764086 1.04283,6.724506 2.38019,9.080306 5.73214,10.097341 3.77148,1.144325 6.96141,-0.02523 11.23618,-4.119627 5.50328,-5.271072 8.40972,-3.647418 6.96702,3.892048 -0.21826,1.140588 -0.39685,3.042465 -0.39688,4.226395 l -4e-5,2.152599 0.74008,1.416679 c 2.44023,4.671146 7.37077,5.273784 14.55144,1.778555 4.75924,-2.316591 6.62651,-2.070266 6.87339,0.906719 l 0.12303,1.483604 -0.97046,1.735351 c -0.89391,1.598465 -1.48385,2.303675 -1.1082,1.324735 0.0937,-0.244301 0.0473,-0.342449 -0.11474,-0.242317 -0.14978,0.09257 -0.20229,0.388958 -0.11669,0.658651 0.0856,0.269693 0.0327,0.706158 -0.11753,0.969921 -2.70372,4.746719 -1.53937,9.951423 2.72891,12.198458 l 1.35556,0.71363 3.30729,-0.0114 c 1.81901,-0.006 4.45099,-0.11136 5.84885,-0.23359 6.04427,-0.52848 7.62189,2.43332 3.2274,6.05905 -9.86401,8.13845 -7.26109,16.41881 5.70157,18.1378 6.94911,0.92153 8.02695,4.20166 2.31709,7.05143 -5.15624,2.57346 -8.30068,5.13361 -8.81864,7.17997 -1.3218,5.22229 1.79595,9.57685 8.95819,12.51188 1.46332,0.59966 2.53411,1.24434 3.1983,1.92557 l 0.99849,1.02409 v 1.25 c 0,1.95857 -0.70513,2.38283 -5.09799,3.06726 -8.29547,1.2925 -10.5541,2.65151 -11.56866,6.96084 -0.86858,3.6893 0.38066,6.52565 4.79336,10.88309 6.83582,6.75023 5.86179,8.98681 -3.34145,7.67274 -11.17126,-1.59506 -15.99871,2.9807 -12.76965,12.10388 0.37323,1.05449 0.57162,1.85113 0.44087,1.77032 -0.3039,-0.18782 -0.29913,-0.10621 0.0527,0.90316 0.15976,0.45828 0.40491,0.83323 0.54479,0.83323 0.13987,0 0.16936,0.13746 0.0655,0.30547 -0.11631,0.18819 -0.0726,0.23368 0.11374,0.11849 0.21767,-0.13453 0.18198,-0.37094 -0.12725,-0.84289 -0.23638,-0.36075 -0.368,-0.71769 -0.29249,-0.7932 0.0755,-0.0755 0.48737,0.43422 0.91526,1.13274 3.11786,5.08984 2.90045,8.01689 -0.59547,8.01689 h -1.38942 l -4.06205,-1.97716 c -11.79938,-5.74322 -17.72947,-1.52638 -15.43115,10.97299 1.02467,5.57267 0.79006,7.32484 -1.06263,7.93629 -2.01867,0.66622 -3.39224,-0.0612 -6.07228,-3.21572 -9.39831,-11.06224 -17.92381,-7.77249 -19.48811,7.51991 l -0.30412,2.97307 -0.69563,0.59399 c -0.90466,0.77249 -3.42746,0.85539 -4.06584,0.13361 z m 3.30879,-0.47256 0.98746,-0.671 v -1.43628 c 0,-1.3126 0.76169,-5.87293 1.19315,-7.1436 0.14497,-0.42692 0.12452,-0.45248 -0.1058,-0.13229 -0.37832,0.52592 -0.36127,0.14522 0.0652,-1.45521 0.4548,-1.70675 0.97302,-2.69 2.02198,-3.83646 0.97854,-1.06949 0.94897,-0.96353 -0.33221,1.19063 -0.5193,0.87312 -1.02311,1.88516 -1.11959,2.24896 -0.0965,0.3638 0.4587,-0.46615 1.23374,-1.84433 2.9032,-5.16253 8.28123,-6.46866 12.71384,-3.08775 0.50385,0.38431 1.05775,0.69874 1.23087,0.69874 0.53256,0 3.68373,3.18978 4.15222,4.20309 1.24704,2.6973 4.237,4.1086 5.66952,2.67608 0.61011,-0.61011 0.74647,-3.06834 0.22431,-4.044 -0.72866,-1.36151 -1.44663,-7.47355 -1.06343,-9.05287 l 0.2568,-1.05834 0.0673,2.11667 0.0673,2.11667 0.18784,-2.51355 c 0.68979,-9.23011 6.61958,-11.16186 17.44743,-5.68384 5.54821,2.80695 9.29759,0.6182 5.30803,-3.09864 -2.05574,-1.91521 -4.00646,-6.66161 -3.93497,-9.57438 l 0.0397,-1.61918 0.17228,1.19063 0.17227,1.19062 0.11872,-1.78649 c 0.11395,-1.71489 -0.10623,-2.43087 -0.36598,-1.19007 -0.0685,0.32742 -0.10659,0.11906 -0.0845,-0.46302 0.0322,-0.84947 0.13145,-1.04299 0.50309,-0.98059 0.27879,0.0468 0.46303,-0.089 0.46303,-0.34127 0,-0.23046 0.23812,-0.88578 0.52916,-1.45626 0.73403,-1.43882 0.66023,-1.67241 -0.12539,-0.39688 -0.35851,0.58208 -0.65556,0.97191 -0.6601,0.86629 -0.0166,-0.38712 1.05428,-1.92462 1.34056,-1.92462 0.16235,0 0.49151,-0.41672 0.73146,-0.92604 0.64806,-1.37559 2.68399,-2.38217 5.20362,-2.57273 l 1.97652,-0.14949 v 0.44336 c 0,0.33427 0.21157,0.43079 0.85989,0.39232 0.47295,-0.0281 1.21709,0.0263 1.65365,0.12089 2.52068,0.54595 6.9818,0.93743 7.87427,0.69101 0.96171,-0.26554 1.66275,-1.30261 1.02438,-1.5154 -0.16483,-0.0549 -0.29969,-0.26822 -0.29969,-0.47396 0,-0.58136 -1.81194,-2.44642 -3.12343,-3.21501 -2.77046,-1.62359 -5.69223,-5.75595 -6.37311,-9.0137 -0.37441,-1.79141 -0.38426,-1.7262 0.23612,-1.56396 l 0.52917,0.13838 v -0.96917 c 0,-0.53304 0.11075,-1.35533 0.24611,-1.82731 0.13537,-0.47198 0.14925,-0.85815 0.0309,-0.85815 -0.25773,0 -0.53137,0.93505 -0.54199,1.85208 -0.004,0.3638 -0.13194,0.84005 -0.28382,1.05834 -0.20052,0.28817 -0.22981,0.0708 -0.10694,-0.79375 0.29145,-2.05065 0.66152,-3.175 1.04502,-3.175 0.20287,0 0.44329,-0.23453 0.53426,-0.52118 0.32712,-1.03065 3.71371,-3.44731 4.83119,-3.44751 0.1819,-4e-5 0.33073,-0.12072 0.33073,-0.2682 0,-0.30005 -1.52192,0.27146 -2.44544,0.91831 -0.64197,0.44965 -1.10734,0.54078 -0.87957,0.17224 0.69963,-1.13203 5.24614,-2.43556 8.88126,-2.54635 4.02524,-0.12267 5.58635,-0.7493 5.52987,-2.21967 l -0.0264,-0.6866 -0.17497,0.62322 -0.17496,0.62322 -0.34847,-0.96366 c -0.38665,-1.06928 -1.87715,-2.17666 -3.29139,-2.44538 -0.94019,-0.17864 -1.91846,-0.63129 -3.4514,-1.59695 l -1.01163,-0.63727 0.35018,-0.42379 0.35018,-0.42378 -0.56146,0.34959 -0.56146,0.34959 -0.89375,-0.55651 c -0.49156,-0.30609 -1.48681,-1.14867 -2.21166,-1.87242 -0.72485,-0.72374 -1.3797,-1.27804 -1.45521,-1.23178 -0.0755,0.0463 -0.15006,-0.26297 -0.16565,-0.68718 -0.0156,-0.42421 -0.21428,-0.97806 -0.44153,-1.23077 -0.31803,-0.35367 -0.40289,-1.00778 -0.36852,-2.84071 l 0.0447,-2.38125 0.78562,-1.32292 c 0.43208,-0.72761 0.75942,-1.44939 0.72741,-1.60396 -0.032,-0.15458 0.31938,-0.63083 0.78085,-1.05834 l 0.83905,-0.77728 -0.6289,0.92604 -0.6289,0.92604 1.04681,-0.92642 c 0.57575,-0.50953 1.404,-1.20071 1.84056,-1.53596 l 0.79375,-0.60954 -0.66145,0.31319 c -0.36381,0.17225 -0.86982,0.49493 -1.12448,0.71707 -0.25467,0.22213 -0.46302,0.27704 -0.46302,0.12201 0,-0.57624 5.13486,-3.46803 6.26933,-3.53068 0.33692,-0.0186 0.28277,-0.0888 -0.18392,-0.23821 l -0.66146,-0.21184 0.72761,-0.0705 c 0.40018,-0.0388 0.93596,-0.0804 1.19062,-0.0925 0.25466,-0.0121 0.54836,-0.14111 0.65266,-0.28663 0.10429,-0.14552 0.40195,-0.27015 0.66145,-0.27694 0.25951,-0.007 0.43911,-0.16448 0.39913,-0.3504 -0.04,-0.18592 0.0412,-0.26766 0.18033,-0.18165 0.28484,0.17604 1.083,-0.8404 1.083,-1.37918 0,-1.25975 -2.5851,-2.46517 -5.54292,-2.58465 -3.83531,-0.15493 -7.70828,-1.25198 -7.2567,-2.05553 0.12328,-0.21937 0.0688,-0.2147 -0.17907,0.0153 -0.40942,0.38002 -0.88266,0.44687 -0.66449,0.0939 0.0805,-0.13027 -0.0391,-0.30803 -0.26574,-0.39501 -0.22667,-0.087 -0.3431,-0.26982 -0.25875,-0.40632 0.0844,-0.13649 0.0294,-0.32477 -0.12207,-0.41841 -0.1515,-0.0936 -0.24274,-0.0274 -0.20276,0.14709 0.04,0.17452 -0.0927,0.37741 -0.29485,0.45086 -0.22541,0.0819 -0.296,0.0177 -0.18252,-0.16586 0.10833,-0.17528 -0.0684,-0.39629 -0.42619,-0.53312 -0.84636,-0.32363 -1.35906,-0.95319 -2.34064,-2.87414 -0.46475,-0.90951 -0.87969,-1.65365 -0.92209,-1.65365 -0.12705,0 0.21128,1.17995 0.37933,1.32292 0.0855,0.0728 0.39212,0.59643 0.68132,1.16372 0.2892,0.56729 0.85475,1.38355 1.25677,1.81392 0.40202,0.43037 0.73095,0.88896 0.73095,1.01909 0,0.13013 0.18278,0.2366 0.40618,0.2366 0.48343,0 1.75547,0.77425 2.05436,1.25042 0.11637,0.18539 0.36581,0.33708 0.55431,0.33708 0.18849,0 0.55835,0.23827 0.8219,0.52949 l 0.47918,0.52949 -0.90119,-0.44639 c -0.49566,-0.24551 -1.51194,-0.83546 -2.25841,-1.31099 -0.74647,-0.47554 -1.45016,-0.78082 -1.56377,-0.67842 -0.11361,0.10241 -0.12415,0.0426 -0.0234,-0.13291 0.22392,-0.39016 -1.00323,-1.25159 -1.50738,-1.05813 -0.19515,0.0749 -0.35482,-0.0197 -0.35482,-0.21026 0,-0.19054 0.14809,-0.2896 0.32909,-0.22014 0.33993,0.13044 -0.481,-1.80175 -1.0868,-2.55799 -0.33346,-0.41625 -0.72147,-2.77013 -0.67024,-4.06601 0.0165,-0.4173 -0.1108,-0.92836 -0.28287,-1.13569 -0.24235,-0.29201 -0.23505,-0.44899 0.0324,-0.69649 0.27655,-0.25596 0.31205,-0.22543 0.17845,0.15352 -0.10381,0.29446 -0.0186,0.52988 0.22564,0.62362 0.21583,0.0828 0.39242,0.45534 0.39242,0.82783 0,0.92497 0.21997,0.6342 0.3648,-0.48221 0.17295,-1.33316 0.42363,-1.82459 0.84772,-1.66185 0.20836,0.08 0.37917,-0.0156 0.38441,-0.21514 0.0334,-1.2713 3.86281,-6.31216 4.7952,-6.31216 0.13952,0 0.16759,-0.1393 0.0624,-0.30955 -0.12801,-0.20713 -0.048,-0.25454 0.24197,-0.14328 0.26439,0.10146 0.53601,-0.01 0.69682,-0.28577 0.14494,-0.24861 0.26715,-0.34428 0.27158,-0.21258 0.016,0.47488 1.06638,-0.7307 1.06638,-1.22389 0,-0.27805 0.12475,-0.73866 0.27723,-1.02357 0.21051,-0.39335 0.17867,-0.61659 -0.13229,-0.92755 -0.52471,-0.52471 -0.53424,-0.80461 -0.0126,-0.37173 0.29296,0.24314 0.39688,0.24808 0.39688,0.0189 0,-0.96789 -4.17539,-1.23529 -5.38427,-0.34482 -0.16735,0.12328 -1.13771,0.25727 -2.15636,0.29776 -2.02785,0.0806 -3.09153,0.55733 -1.24354,0.55733 0.61119,0 1.11125,0.10721 1.11125,0.23825 0,0.13104 -0.44222,0.19715 -0.9827,0.14692 -0.54049,-0.0502 -1.12819,0.0294 -1.30601,0.17698 -0.20001,0.166 -0.50631,0.17755 -0.80323,0.0303 -0.26397,-0.13091 -1.17758,-0.26062 -2.03026,-0.28823 -0.85268,-0.0276 -1.79706,-0.22304 -2.09864,-0.43427 -0.42018,-0.29431 -0.63451,-0.31251 -0.91723,-0.0779 -0.46139,0.38292 -0.91967,-0.21578 -0.7016,-0.91656 0.0792,-0.25466 0.017,-0.46302 -0.13834,-0.46302 -0.15532,0 -0.28241,0.12609 -0.28241,0.2802 0,0.15411 -0.12222,0.20466 -0.2716,0.11234 -0.14938,-0.0923 -0.23868,-0.31696 -0.19844,-0.4992 0.0938,-0.42473 -1.53355,-2.294955 -1.78983,-2.056985 -0.10618,0.0986 -0.0573,-0.0819 0.10868,-0.40111 l 0.30174,-0.58037 -0.53182,0.10241 c -0.39409,0.0759 -0.6655,-0.15068 -1.04796,-0.87483 -0.28387,-0.53749 -0.52139,-0.88205 -0.52782,-0.76568 -0.006,0.11637 0.15168,0.53309 0.35137,0.92604 0.21159,0.41639 0.28156,0.93524 0.16772,1.24364 l -0.19535,0.52916 -0.43858,-1.03951 c -0.24121,-0.57173 -0.39274,-1.16705 -0.33673,-1.32292 0.056,-0.15587 -0.10189,-0.70012 -0.35089,-1.20944 -0.33862,-0.69265 -0.39414,-1.142771 -0.22029,-1.785942 0.3041,-1.125038 0.59155,-1.109037 0.4079,0.02271 -0.0788,0.485431 -0.0367,1.050982 0.0936,1.256772 0.1528,0.24139 0.2394,-0.283051 0.24404,-1.477916 0.004,-1.018646 0.17998,-2.50139 0.39118,-3.294988 0.21119,-0.793597 0.33667,-1.490225 0.27883,-1.548061 -0.10918,-0.109181 -0.53639,1.335221 -0.83184,2.812449 -0.19563,0.978166 -0.63101,1.39485 -0.63101,0.603916 0,-0.854517 0.6991,-3.297768 1.29872,-4.538847 0.69716,-1.442952 0.69402,-1.759376 -0.0197,-1.985913 -0.31521,-0.100043 -0.90767,-0.548197 -1.31658,-0.995898 l -0.74348,-0.814002 -0.90573,0.431913 c -0.49815,0.237552 -1.3642,0.523484 -1.92456,0.635403 -0.56036,0.11192 -1.10814,0.223744 -1.21728,0.248499 -0.10914,0.02475 -0.30899,0.05989 -0.44412,0.07808 -0.13513,0.01819 -0.44518,0.232566 -0.689,0.476391 -0.33447,0.33447 -0.55283,0.374929 -0.88933,0.164783 -0.2453,-0.153195 -1.53822,-0.364982 -2.87315,-0.470638 -1.49318,-0.118181 -2.54013,-0.328253 -2.72079,-0.54593 -0.16151,-0.194605 -0.45441,-0.29214 -0.65089,-0.216743 -0.19648,0.0754 -0.48088,-0.09394 -0.632,-0.376314 -0.15112,-0.28237 -0.63254,-0.661597 -1.06983,-0.842726 -0.43728,-0.181129 -0.86658,-0.554646 -0.95398,-0.830038 -0.0874,-0.275391 -0.25879,-0.500712 -0.38086,-0.500712 -0.12206,0 -0.6343,-0.573992 -1.13831,-1.275537 -0.82362,-1.146418 -1.039,-1.785687 -1.35312,-4.016129 -0.0512,-0.363802 -0.11636,-0.661458 -0.14471,-0.661458 -0.0284,0 -0.075,-1.045997 -0.10354,-2.324438 -0.0416,-1.859303 0.0113,-2.237851 0.26442,-1.891734 0.17402,0.237987 0.43074,0.362037 0.57049,0.275667 0.13975,-0.08637 0.23697,0.129632 0.21604,0.480004 -0.0234,0.391396 -0.14007,0.552685 -0.30263,0.418278 -0.38548,-0.318722 -0.45159,1.33457 -0.0717,1.792347 l 0.31133,0.375137 0.1923,-0.488672 c 0.711,-1.806758 0.097,-3.548316 -1.30357,-3.697643 -0.38941,-0.04152 -0.95649,-0.208468 -1.26019,-0.371001 l -0.55217,-0.295515 -1.70072,1.08426 c -0.9354,0.596343 -1.81979,1.102636 -1.96531,1.125094 -0.14552,0.02246 -0.42192,0.198167 -0.61421,0.390463 -0.1923,0.192295 -0.55689,0.349628 -0.8102,0.349628 -0.25331,0 -0.92942,0.221922 -1.50246,0.493161 -1.594,0.754499 -5.13557,0.856207 -6.43398,0.184772 -0.43963,-0.227342 -0.95809,-0.41335 -1.15212,-0.41335 -0.4339,0 -3.24536,-1.786955 -3.24536,-2.062737 0,-0.349538 -1.12324,-1.64143 -1.42714,-1.64143 -0.16096,0 -0.29266,-0.179025 -0.29266,-0.397833 0,-0.218809 -0.23812,-0.842124 -0.52916,-1.385145 -0.29104,-0.54302 -0.52917,-1.349534 -0.52917,-1.792253 0,-0.442718 -0.19442,-1.082517 -0.43204,-1.421774 -0.3194,-0.455995 -0.35062,-0.667156 -0.11977,-0.809831 0.22842,-0.141175 0.20072,-0.285582 -0.10318,-0.537796 l -0.41546,-0.344798 0.17729,0.500445 c 0.14528,0.410082 0.11293,0.440726 -0.17915,0.169715 -0.19604,-0.181901 -0.50748,-0.330729 -0.69209,-0.330729 -0.42013,0 -0.1684,0.801359 0.39421,1.254928 0.22438,0.180887 0.44114,0.75021 0.48169,1.265162 0.0406,0.514952 0.25706,1.119598 0.48112,1.343659 0.22406,0.22406 0.40738,0.70356 0.40738,1.065556 0,0.361996 0.11546,0.586817 0.25658,0.499602 0.14111,-0.08722 0.43877,0.277486 0.66146,0.810447 0.50376,1.205685 0.50475,1.316655 0.008,0.904395 -0.21828,-0.181157 -0.39687,-0.549186 -0.39687,-0.817842 0,-0.331252 -0.13122,-0.438113 -0.4077,-0.332019 -0.22423,0.08605 -0.38872,0.05254 -0.36554,-0.07445 0.0232,-0.126993 0.0243,-0.528553 0.002,-0.892355 l -0.0397,-0.661458 -0.35717,0.470796 -0.35717,0.470797 -0.16055,-0.418393 c -0.0927,-0.241591 -0.05,-0.350084 0.101,-0.256744 0.14385,0.08891 0.26155,-0.02023 0.26155,-0.242538 0,-0.265291 -0.15911,-0.353002 -0.46302,-0.255239 -0.31484,0.101279 -0.35901,0.07359 -0.13802,-0.08652 0.18091,-0.131074 0.27935,-0.596201 0.22203,-1.049103 -0.16367,-1.293305 -1.1431,-2.561273 -1.24332,-1.609614 -0.0192,0.181901 -0.11112,-0.08599 -0.20436,-0.595312 -0.19814,-1.08238 -0.0505,-1.215234 1.56211,-1.405994 0.65484,-0.07746 1.04488,-0.08156 0.86675,-0.0091 -0.24874,0.101163 -0.23794,0.265252 0.0466,0.70727 0.20375,0.316552 0.4547,1.051798 0.55767,1.633881 0.27054,1.529251 0.89834,2.693812 1.19751,2.221342 0.32893,-0.519479 0.29769,-0.831833 -0.061,-0.610133 -0.20873,0.129004 -0.26176,-0.02821 -0.17051,-0.505545 0.0811,-0.424276 0.0297,-0.629311 -0.13252,-0.529027 -0.16767,0.103628 -0.19832,-0.101736 -0.0835,-0.559342 0.13201,-0.525966 0.0955,-0.669937 -0.134,-0.528112 -0.23487,0.145164 -0.27261,-0.10267 -0.14769,-0.970018 l 0.16778,-1.164998 -0.39153,0.79375 -0.39152,0.79375 0.10701,-0.79375 c 0.0588,-0.436562 0.19642,-1.080259 0.30571,-1.430436 0.15234,-0.48811 0.11817,-0.586908 -0.14643,-0.423378 -0.27222,0.168239 -0.31499,-0.05417 -0.20245,-1.052641 0.0967,-0.858307 0.06,-1.147963 -0.11413,-0.899538 -0.18386,0.262321 -0.22266,0.153863 -0.13656,-0.38179 0.0952,-0.592012 -0.009,-0.807209 -0.50016,-1.030877 -0.34122,-0.155472 -0.55758,-0.384329 -0.4808,-0.508571 0.21675,-0.35071 -1.82511,-0.249404 -2.28258,0.11325 -0.6448,0.511146 -1.64281,2.042106 -1.33122,2.042106 0.15543,0 0.2826,0.115326 0.2826,0.25628 0,0.140953 -0.19039,0.183222 -0.42308,0.09393 -0.45188,-0.173403 -0.4618,-0.20553 0.51759,1.674988 0.54222,1.041111 0.54102,1.074259 -0.0504,1.390785 -0.36316,0.194356 -0.48507,0.166372 -0.48507,-0.111344 0,-0.20402 0.0992,-0.309624 0.22048,-0.234677 0.12127,0.07495 0.22049,0.03293 0.22049,-0.09336 0,-0.330605 -0.72931,-1.280863 -0.86273,-1.124102 -0.18452,0.216804 -2.57686,3.979177 -2.57686,4.052572 0,0.03726 0.2407,0.08587 0.53489,0.108028 0.3264,0.02459 0.46516,-0.07253 0.35599,-0.249159 -0.1073,-0.17362 -0.0567,-0.213903 0.12658,-0.100664 0.7113,0.439611 0.32466,0.919875 -0.54074,0.67168 l -0.84621,-0.242689 -0.77269,0.790325 c -0.7326,0.749327 -1.45788,1.093849 -1.10677,0.525741 0.26617,-0.430669 -0.0375,-0.301564 -0.43063,0.183081 -0.24674,0.304181 -0.25712,0.383979 -0.0324,0.248968 0.1819,-0.109282 0.33072,-0.136326 0.33072,-0.0601 0,0.07623 -0.25249,0.273728 -0.56109,0.438887 -0.4522,0.242008 -0.52542,0.230976 -0.37726,-0.05684 0.10112,-0.196419 0.0144,-0.150617 -0.19266,0.101782 -0.20709,0.2524 -0.47313,0.371463 -0.59121,0.264584 -0.11808,-0.106879 -0.13274,-0.05147 -0.0326,0.123129 0.32719,0.570308 -0.95354,0.95483 -3.26561,0.980459 l -2.25563,0.025 -1.32291,-0.661459 c -0.7322,-0.366097 -1.29046,-0.81792 -1.25022,-1.011854 0.0404,-0.194686 -0.0552,-0.27135 -0.21511,-0.172518 -0.36832,0.227633 -1.35484,-0.650216 -1.13339,-1.008536 0.0918,-0.148556 0.0468,-0.195845 -0.10007,-0.105085 -0.48463,0.299517 -2.761173,-2.916814 -3.143903,-4.441758 -0.24408,-0.972494 -1.15347,-0.46053 -0.9273,0.522043 0.0335,0.145521 -0.0777,0.128538 -0.24709,-0.03774 -0.23414,-0.229831 -0.22506,-0.451882 0.0379,-0.926042 0.56259,-1.014535 0.23264,-2.40726 -0.84105,-3.550152 -0.28543,-0.303824 -0.46826,-0.603105 -0.4063,-0.665069 0.062,-0.06197 -0.34229,-0.112663 -0.89835,-0.112663 -0.55606,0 -0.96092,0.08107 -0.89968,0.180155 0.11079,0.17927 -0.39882,0.601818 -0.73514,0.609543 -0.097,0.0022 -0.27561,0.112437 -0.39687,0.244908 -0.12961,0.141584 -0.0569,0.16076 0.17639,0.04652 0.31059,-0.152083 0.30554,-0.118164 -0.0232,0.156018 -0.23106,0.192693 -0.36444,0.515752 -0.29641,0.717908 0.0831,0.247071 0.011,0.297892 -0.22018,0.155034 -0.25018,-0.154621 -0.29562,-0.0868 -0.16679,0.248932 0.0974,0.2538 0.0955,1.136535 -0.004,1.961632 -0.15153,1.254403 -0.21584,1.391811 -0.3925,0.838719 -0.15537,-0.486412 -0.17935,-0.381385 -0.0906,0.396875 0.14344,1.258467 -0.0845,2.307697 -0.45204,2.080557 -0.1615,-0.09981 -0.19403,0.05436 -0.0844,0.399851 0.24952,0.786174 -0.0887,1.821975 -0.43261,1.324864 -0.17681,-0.255575 -0.1994,-0.176455 -0.075,0.262758 0.12007,0.424018 0.0837,0.570164 -0.11193,0.449279 -0.18764,-0.115968 -0.22845,-0.01902 -0.11568,0.274853 0.11741,0.305969 0.0743,0.392247 -0.13229,0.264583 -0.20656,-0.127663 -0.2497,-0.04139 -0.13229,0.264584 0.11741,0.305968 0.0743,0.392246 -0.13229,0.264583 -0.19567,-0.120927 -0.25325,-0.05062 -0.15922,0.194417 0.081,0.21112 0.002,0.473825 -0.1762,0.583789 -0.20687,0.127852 -0.25544,0.08981 -0.13472,-0.105529 0.2864,-0.463406 0.006,-0.365087 -0.40536,0.1422 -0.24673,0.304181 -0.25712,0.383979 -0.0324,0.248969 0.61221,-0.367803 0.33733,0.256382 -0.44152,1.00256 -0.42473,0.406925 -0.88114,0.672563 -1.01423,0.590307 -0.1331,-0.08226 -0.24199,0.0238 -0.24199,0.23568 0,0.539831 0.0464,0.515931 1.37293,-0.706794 0.65159,-0.600617 1.18471,-0.981968 1.18471,-0.847446 0,0.231289 -1.35684,1.587383 -2.51354,2.512155 -0.70948,0.567223 -1.71979,0.863001 -1.71979,0.503485 0,-0.155327 0.16401,-0.282413 0.36447,-0.282413 0.20047,0 0.52789,-0.198087 0.72761,-0.440193 l 0.36312,-0.440192 -0.61083,0.325515 c -0.33595,0.179033 -0.9908,0.25836 -1.4552,0.176282 -0.68647,-0.121324 -0.74542,-0.09919 -0.31522,0.118343 l 0.52917,0.267576 -0.7276,-0.09927 c -0.40018,-0.0546 -0.72761,-0.01134 -0.72761,0.09613 0,0.107466 -0.56554,0.154855 -1.25677,0.105309 -0.69122,-0.04955 -1.03113,-0.02286 -0.75534,0.0593 0.40406,0.120374 0.42974,0.194767 0.13229,0.383116 -0.27738,0.175638 -0.22116,0.234743 0.22618,0.237787 0.32742,0.0022 0.59531,0.123114 0.59531,0.268635 0,0.351252 -0.98003,0.340747 -1.19857,-0.01285 -0.10322,-0.167028 -0.2937,-0.183748 -0.47863,-0.04202 -0.38988,0.298801 -1.5561,0.01225 -1.69937,-0.417555 -0.0827,-0.248044 0.0631,-0.26029 0.61239,-0.05145 0.3965,0.150747 0.78096,0.214026 0.85437,0.14062 0.0734,-0.07341 -0.0324,-0.185844 -0.23513,-0.249861 -1.91773,-0.605571 -3.16164,-1.149994 -3.94048,-1.724632 -0.50932,-0.375785 -0.98557,-0.687852 -1.05833,-0.693483 -0.0728,-0.0056 -0.42995,-0.170076 -0.79375,-0.365431 -0.4111,-0.220752 -0.26349,-0.0056 0.38999,0.568479 0.5783,0.508019 1.67639,1.207856 2.44021,1.555192 1.27224,0.578538 1.77641,1.028397 1.15255,1.028397 -0.37823,0 -2.63548,-1.241533 -3.61345,-1.987473 -0.47474,-0.362098 -0.99017,-0.658361 -1.1454,-0.658361 -0.15523,0 -0.28223,-0.221235 -0.28223,-0.491634 0,-0.621684 -1.46101,-0.578239 -3.04271,0.09048 -0.84187,0.355927 -0.97716,0.367591 -0.66146,0.05702 0.21828,-0.214733 0.93683,-0.623851 1.59678,-0.909153 l 1.1999,-0.518729 0.57304,0.380487 c 0.31517,0.209267 0.6999,0.302087 0.85494,0.206267 0.40475,-0.250154 0.0662,-0.672301 -0.39668,-0.494666 -0.21362,0.08197 -0.3884,0.01152 -0.3884,-0.156557 0,-0.602102 -1.86592,-3.208249 -2.50572,-3.499763 -0.35898,-0.163559 -0.60857,-0.369267 -0.55465,-0.457128 0.0539,-0.08786 -0.43549,-0.159748 -1.08758,-0.159748 -1.30431,0 -2.06385,0.640171 -1.78858,1.507475 0.0847,0.266807 0.0201,0.4769 -0.14667,0.4769 -0.17097,0 -0.21093,0.14093 -0.0937,0.33057 0.11237,0.181813 0.17,0.657638 0.12807,1.057387 -0.0571,0.544619 0.15628,0.946111 0.85131,1.60161 l 0.92755,0.874792 -0.52986,0.330901 -0.52986,0.330901 0.0852,-0.584841 c 0.0468,-0.321663 -0.0693,-0.637485 -0.25815,-0.701828 -0.26953,-0.09184 -0.29899,0.187238 -0.13707,1.298323 0.11343,0.77842 0.2051,2.34125 0.20371,3.472954 l -0.002,2.057645 0.3103,-0.999312 c 0.17067,-0.549621 0.33486,-0.880248 0.36486,-0.734728 0.13125,0.636618 -0.0775,2.184416 -0.39852,2.954983 -0.1921,0.461074 -0.27355,0.914032 -0.181,1.006574 0.0925,0.09254 0.0407,0.25108 -0.11526,0.352309 -0.15593,0.101228 -0.59832,0.686674 -0.98308,1.300991 -0.38477,0.614317 -1.05741,1.301983 -1.49477,1.528148 -0.43735,0.226165 -0.79519,0.49815 -0.79519,0.60441 0,0.422141 -2.86556,1.289645 -4.89479,1.481819 -1.36997,0.129741 -3.57187,-0.266773 -3.57187,-0.643216 0,-0.118087 0.38616,-0.103953 0.85815,0.03141 1.04379,0.299356 3.57513,0.291583 4.30122,-0.01321 0.32619,-0.136926 -0.23199,-0.184069 -1.45521,-0.122903 -1.31296,0.06565 -1.7158,0.02743 -1.19062,-0.11298 0.60414,-0.161516 0.35134,-0.211535 -1.05833,-0.209394 l -1.85209,0.0028 -2.38125,-1.17046 c -1.30965,-0.643705 -2.35287,-1.314956 -2.31824,-1.49162 0.0388,-0.198046 -0.10463,-0.256893 -0.37413,-0.153474 -0.29128,0.111774 -0.3739,0.06547 -0.24767,-0.138783 0.12767,-0.206564 0.0414,-0.249703 -0.26458,-0.132292 -0.33242,0.127561 -0.39601,0.08037 -0.23745,-0.176203 0.1447,-0.234122 0.11441,-0.287283 -0.0913,-0.160176 -0.35504,0.219428 -1.42405,-0.05746 -1.25853,-0.325976 0.24927,-0.404382 -2.2386,-0.141456 -2.66131,0.281256 -0.76674,0.766744 -0.69659,3.726594 0.0732,3.087737 0.3095,-0.256857 0.34952,-0.234723 0.21403,0.118362 -0.14161,0.369033 0.17288,0.590143 0.52364,0.368152 0.16549,-0.104737 1.2184,0.91594 1.2184,1.181101 0,0.131556 -0.11429,0.168556 -0.25398,0.08222 -0.15052,-0.09303 -0.13998,0.170057 0.0259,0.645844 0.35765,1.025937 0.79298,1.047544 0.58932,0.02925 l -0.15471,-0.77356 1.02122,-0.523608 c 0.56168,-0.287984 1.30987,-0.832851 1.66266,-1.210815 0.66534,-0.71282 1.44849,-0.894 1.75069,-0.40502 0.25245,0.408466 -0.0995,0.661023 -0.44283,0.317737 -0.2114,-0.211399 -0.50125,-0.0756 -1.06116,0.497183 -0.42367,0.433414 -1.18547,0.961486 -1.69288,1.173496 l -0.92256,0.385471 0.15749,0.627473 c 0.0866,0.345111 0.0413,0.699306 -0.1008,0.7871 -0.15471,0.09562 -0.051,0.558088 0.25865,1.153344 0.33233,0.638863 0.47042,1.298691 0.38672,1.847752 -0.0825,0.541003 -0.0236,0.831937 0.16063,0.793749 0.34018,-0.07051 0.76728,1.606676 0.45784,1.797921 -0.11522,0.07121 -0.25967,0.03943 -0.32101,-0.07062 -0.0613,-0.110048 -0.071,-0.0402 -0.0215,0.155223 0.41274,1.628448 0.41867,1.701262 0.12359,1.518896 -0.21593,-0.133452 -0.29308,0.15139 -0.2622,0.967986 0.10798,2.854721 -3.79783,6.490936 -7.44651,6.932516 -1.22957,0.14881 -0.78619,-0.0438 1.19063,-0.51714 l 0.79375,-0.19007 -0.52917,-0.21567 c -0.74126,-0.30211 -1.13625,-0.29512 -0.66146,0.0117 l 0.39688,0.25648 -0.44139,0.004 c -0.24276,0.002 -0.64924,0.0838 -0.9033,0.18131 -0.31493,0.12085 -0.40104,0.0787 -0.2706,-0.1323 0.1403,-0.22701 -0.32433,-0.29737 -1.74254,-0.26388 l -1.93384,0.0457 1.5875,0.18811 c 1.19183,0.14123 0.89509,0.16772 -1.19063,0.10627 -1.52797,-0.045 -3.01625,-0.16277 -3.30729,-0.26169 -0.33308,-0.1132 -0.24997,0.0152 0.22429,0.34657 0.4826,0.33717 0.62981,0.56763 0.40949,0.64107 -0.41272,0.13757 -1.59978,-0.83294 -1.40476,-1.1485 0.0754,-0.12193 -0.0478,-0.15078 -0.27361,-0.0641 -0.22584,0.0867 -0.41062,0.0258 -0.41062,-0.13532 0,-0.16109 0.14883,-0.30508 0.33073,-0.31997 0.1819,-0.0149 -0.086,-0.1324 -0.59531,-0.26112 -0.57299,-0.14481 -1.6073,-0.12531 -2.71298,0.0512 l -1.78694,0.28519 -0.16126,0.64252 c -0.29819,1.18807 1.75271,3.89544 2.95089,3.89544 0.18531,0 0.2864,0.13166 0.22465,0.29258 -0.13223,0.34458 1.91619,2.37327 2.66143,2.63581 l 0.51433,0.18119 -0.48919,-0.54055 c -0.26906,-0.29731 -0.35774,-0.54056 -0.19707,-0.54056 0.16067,0 0.59584,0.3982 0.96705,0.88487 0.73669,0.96585 0.89313,1.47769 0.3016,0.98677 -0.57863,-0.48023 -0.69341,0.0446 -0.15513,0.70937 0.56366,0.69609 0.92088,0.77962 0.683,0.1597 -0.13935,-0.36314 -0.10063,-0.37951 0.23627,-0.0999 0.42088,0.3493 0.5467,0.82148 0.2045,0.76745 -0.51592,-0.0815 -0.58774,0.0783 -0.28176,0.62664 0.79441,1.42372 0.97104,2.35947 0.7049,3.73452 -0.14463,0.74729 -0.28413,1.6266 -0.30998,1.95402 -0.0259,0.32742 -0.13631,0.59531 -0.24546,0.59531 -0.10914,0 -0.19843,0.12738 -0.19843,0.28306 0,0.15568 -0.37555,0.8289 -0.83456,1.49604 -0.459,0.66715 -0.69713,1.12806 -0.52917,1.02425 0.59865,-0.36999 0.29218,0.28531 -0.47895,1.0241 -0.43139,0.4133 -0.72019,0.85524 -0.64179,0.9821 0.0784,0.12686 0.0444,0.20692 -0.0755,0.17792 -0.36121,-0.0873 -1.67331,0.63402 -1.67331,0.91993 0,0.14642 -0.0674,0.19878 -0.14985,0.11637 -0.0824,-0.0824 -0.88314,0.13752 -1.77938,0.48876 -0.89624,0.35123 -2.43615,0.71357 -3.42203,0.8052 -1.02895,0.0956 -1.79422,0.29129 -1.79654,0.45933 -0.003,0.19533 -0.0706,0.18806 -0.20408,-0.0219 -0.78555,-1.23547 -4.25376,-0.66169 -5.2572,0.86976 -0.48502,0.74024 -0.21212,2.15257 0.39119,2.02451 0.1714,-0.0364 0.28187,0.064 0.24549,0.22306 -0.10347,0.45239 1.91321,1.45079 2.67239,1.32303 0.1965,-0.0331 0.28664,0.0542 0.2003,0.19387 -0.19048,0.3082 1.28122,0.006 2.22677,-0.45675 l 0.65523,-0.3209 -0.6155,0.53672 c -0.33852,0.29519 -0.54069,0.65774 -0.44928,0.80565 0.10077,0.16305 -0.0215,0.20523 -0.31054,0.10713 -0.71227,-0.24175 0.50226,0.62636 1.56844,1.12107 1.36389,0.63284 2.02813,1.04521 2.6993,1.67574 0.39967,0.37547 0.68677,0.4837 0.79945,0.30139 0.0967,-0.15647 0.37715,-0.27067 0.62322,-0.25379 l 0.44741,0.0307 -0.46302,0.121 c -0.56199,0.14686 -0.56051,0.0924 -0.0381,1.39804 0.2337,0.58409 0.53136,0.99619 0.66146,0.91578 0.3488,-0.21557 0.28764,0.25728 -0.081,0.62588 -0.21242,0.21241 -0.22179,0.3175 -0.0283,0.3175 0.15905,0 0.3601,0.18477 0.44676,0.41061 0.10294,0.26828 0.0513,0.34495 -0.14895,0.22118 -0.20758,-0.12829 -0.2493,-0.0403 -0.12926,0.27248 0.0975,0.25406 0.17725,0.5514 0.17725,0.66077 0,0.10936 0.1786,0.19885 0.39688,0.19885 0.21828,0 0.39687,-0.16615 0.39687,-0.36921 0,-0.73726 -0.85901,-2.97308 -1.08791,-2.83161 -0.12925,0.0799 -0.235,-0.16795 -0.235,-0.55073 0,-1.3085 1.11334,0.56035 1.81461,3.04599 0.27956,0.99088 0.19583,3.76305 -0.12955,4.28953 -0.10819,0.17506 -0.22451,0.57896 -0.25848,0.89756 -0.14097,1.32222 -3.08396,5.39137 -3.90205,5.39519 -0.12457,5.8e-4 -0.46064,0.29871 -0.7468,0.66251 -0.28617,0.3638 -0.68992,0.66146 -0.89722,0.66146 -0.2073,0 -0.84882,0.42635 -1.42561,0.94744 -1.02639,0.92728 -1.84195,1.10189 -2.06186,0.44144 -0.0687,-0.20621 0.0422,-0.27243 0.29425,-0.17571 0.22687,0.0871 0.92547,-0.20329 1.59114,-0.66128 0.65269,-0.44906 1.28013,-0.81647 1.39431,-0.81647 1.59606,0 5.16869,-5.23552 5.5312,-8.10572 0.071,-0.56233 0.1944,-1.23077 0.27417,-1.48543 0.0958,-0.30572 0.004,-0.46302 -0.26966,-0.46302 -0.39516,0 -0.59298,1.40343 -0.42364,3.00548 0.0286,0.27057 -0.0657,0.41924 -0.20944,0.33037 -0.15641,-0.0967 -0.20146,0.0678 -0.11214,0.40933 0.10154,0.38831 0.0523,0.51096 -0.15394,0.38349 -0.20282,-0.12535 -0.24554,-0.0371 -0.12901,0.26662 0.11994,0.31255 0.0756,0.39309 -0.14216,0.25848 -0.20458,-0.12644 -0.41659,0.0919 -0.59991,0.61774 -0.15593,0.4473 -0.37367,0.75756 -0.48386,0.68946 -0.11019,-0.0681 -0.48555,0.18147 -0.83412,0.55462 -0.34858,0.37314 -0.9612,0.84878 -1.36138,1.05697 -0.40018,0.20819 -0.7276,0.49872 -0.7276,0.64563 0,0.1774 0.17186,0.17511 0.51177,-0.007 0.28148,-0.15064 0.597,-0.27389 0.70116,-0.27389 0.28032,0 -1.8286,1.49102 -2.98733,2.11207 -0.55205,0.29588 -1.01861,0.65608 -1.0368,0.80045 -0.0767,0.60849 -0.11943,0.6402 -0.35684,0.26469 -0.18971,-0.30008 -0.32329,-0.32089 -0.55735,-0.0868 -0.38344,0.38344 -1.03711,0.15894 -1.03711,-0.35619 0,-0.2113 -0.12101,-0.30939 -0.2689,-0.21799 -0.1479,0.0914 -0.18903,0.29542 -0.0914,0.45337 0.10593,0.1714 0.0543,0.21107 -0.12798,0.0984 -0.4692,-0.28998 -0.97163,0.11566 -0.53215,0.42964 0.28171,0.20127 0.26675,0.22727 -0.0695,0.12078 -1.08814,-0.34459 -2.97271,1.62084 -3.02356,3.1533 -0.0305,0.91863 0.47333,1.24184 1.99683,1.28107 0.43713,0.0113 0.63773,0.15163 0.59148,0.41391 -0.0536,0.30412 0.015,0.28866 0.29375,-0.0661 0.47996,-0.61098 0.96685,-0.58938 0.96685,0.0429 0,0.39148 0.25435,0.54531 1.12448,0.68008 0.61847,0.0958 1.95792,0.39014 2.97656,0.65409 1.01865,0.26396 2.28146,0.55542 2.80624,0.64769 1.78979,0.3147 4.99897,3.11092 4.99897,4.3557 0,0.14621 0.13912,0.601 0.30915,1.01066 0.35653,0.85896 0.50131,4.78567 0.19819,5.37504 -0.28544,0.55498 -0.60317,1.40547 -0.64247,1.71979 -0.17429,1.39357 -3.56647,5.68854 -4.49284,5.68854 -0.9558,0 -3.62412,2.20764 -3.3938,2.80786 0.0774,0.20159 -0.0787,0.44324 -0.3513,0.54405 -0.95813,0.3543 -0.90172,1.13357 0.19312,2.66763 l 0.41901,0.58711 1.28741,-0.13027 c 0.70808,-0.0717 1.80791,-0.38224 2.44407,-0.6902 2.43477,-1.17865 7.72579,-0.99132 9.98259,0.35345 0.43656,0.26014 0.98068,0.47342 1.20914,0.47396 5.01274,0.0119 5.37486,12.36274 0.50215,17.12671 -2.01859,1.97356 -2.04416,5.89303 -0.0384,5.89303 1.16178,0 3.77466,-0.80616 3.5886,-1.10721 -0.0763,-0.12338 -0.27925,-0.14001 -0.45109,-0.0369 -0.17185,0.10307 -0.14365,-0.0205 0.0627,-0.27471 0.20631,-0.25416 0.62303,-0.5814 0.92604,-0.72719 l 0.55093,-0.26508 -0.60524,0.52841 -0.60525,0.52841 0.52077,-0.0392 c 0.28642,-0.0216 0.44995,-0.15381 0.3634,-0.29386 -0.0888,-0.14372 0.0265,-0.18407 0.26478,-0.0926 0.31161,0.11957 0.39651,0.0289 0.32425,-0.34635 -0.1298,-0.67403 0.25672,-0.87868 0.95437,-0.50531 0.39404,0.21088 0.51181,0.21461 0.38673,0.0122 -0.17292,-0.2798 0.15122,-0.40018 0.83936,-0.31171 0.18234,0.0234 0.26199,-0.12613 0.1804,-0.33876 -0.20613,-0.53716 0.30939,-0.7762 0.94283,-0.43719 0.31438,0.16825 0.53464,0.18237 0.53464,0.0343 0,-0.13851 -0.14883,-0.31189 -0.33073,-0.38529 -0.23847,-0.0962 -0.24283,-0.13928 -0.0156,-0.15434 0.17331,-0.0115 0.3887,0.0982 0.47863,0.24369 0.0899,0.14552 0.29014,0.26459 0.44489,0.26459 0.18481,0 0.17463,-0.12861 -0.0297,-0.37476 -0.42992,-0.51802 2.08548,-1.08223 3.70711,-0.83151 0.64313,0.0994 1.66919,0.20317 2.28013,0.23051 0.61095,0.0273 1.26579,0.21601 1.45521,0.41926 0.28469,0.30547 0.27997,0.33279 -0.0272,0.15756 -0.25699,-0.14661 -0.30994,-0.11221 -0.17167,0.11151 0.10996,0.17792 0.36505,0.26014 0.56687,0.18269 0.20182,-0.0774 0.34032,-0.0558 0.30779,0.0481 -0.0325,0.1039 0.68327,0.93752 1.59067,1.85248 0.90741,0.91497 1.64983,1.7852 1.64983,1.93385 0,0.14865 0.10175,0.20739 0.22612,0.13052 0.12437,-0.0769 0.51132,0.17141 0.8599,0.55171 l 0.63377,0.69146 -0.7083,-0.45281 -0.70829,-0.45281 0.28662,0.93389 c 0.15763,0.51363 0.37583,0.87874 0.48488,0.81134 0.48936,-0.30244 -0.0561,6.56875 -0.68346,8.60908 -1.8417,5.98998 -0.41857,8.6226 3.24634,6.00532 0.61822,-0.4415 1.0758,-0.85097 1.01683,-0.90993 -0.24534,-0.24535 4.7844,-4.63654 6.28524,-5.48729 0.89543,-0.50757 1.50899,-0.92832 1.36347,-0.93498 -0.14552,-0.007 -0.0538,-0.13483 0.20378,-0.2848 0.2576,-0.14997 0.71899,-0.19313 1.02532,-0.0959 0.3637,0.11543 0.49633,0.0787 0.38224,-0.10593 -0.12071,-0.19532 0.40944,-0.2386 1.71501,-0.14003 1.31556,0.0993 1.83618,0.056 1.71347,-0.14252 -0.27527,-0.4454 0.92825,-0.31895 1.97164,0.20717 0.53491,0.26972 0.88879,0.62754 0.83785,0.84718 -0.0485,0.20914 -0.002,0.29447 0.10242,0.18963 0.10484,-0.10484 0.53149,0.0521 0.94809,0.34875 0.41661,0.29665 0.75747,0.45097 0.75747,0.34293 0,-0.10803 0.29766,0.0832 0.66146,0.42498 0.3638,0.34178 0.66146,0.73291 0.66146,0.86918 0,0.13628 -0.23416,-0.0333 -0.52036,-0.37685 -0.2862,-0.34354 -0.52005,-0.50556 -0.51966,-0.36004 4e-4,0.14552 0.30716,0.62177 0.6817,1.05834 0.37454,0.43656 0.58998,0.62652 0.47877,0.42214 -0.13102,-0.24079 -0.0987,-0.30767 0.0917,-0.18997 0.16165,0.0999 0.21934,0.37596 0.12821,0.61345 -0.10598,0.27617 -0.0607,0.36692 0.12556,0.2518 0.1602,-0.099 0.36605,-0.059 0.45746,0.0889 0.0914,0.14789 0.0331,0.26889 -0.12963,0.26889 -0.1627,0 -0.22103,0.12101 -0.12962,0.2689 0.0914,0.1479 0.26743,0.20633 0.39116,0.12986 0.36019,-0.22261 0.86871,1.68576 0.69321,2.60149 -0.11466,0.5983 -0.0862,0.7233 0.0999,0.43934 0.14309,-0.21828 0.27191,-0.33735 0.28626,-0.26459 0.14457,0.73277 0.11524,1.27298 -0.0631,1.16274 -0.1207,-0.0746 -0.21946,0.10952 -0.21946,0.40915 0,0.29963 0.10155,0.54478 0.22567,0.54478 0.12412,0 0.22635,0.80367 0.22718,1.78594 0.007,7.92452 2.81186,9.24221 6.03079,2.83288 4.25227,-8.46684 8.793093,-11.71839 13.513463,-9.6766 l 1.30186,0.56312 -0.66146,-0.54738 -0.66146,-0.54738 0.66146,0.18236 c 1.14687,0.31619 3.12611,1.9504 4.00509,3.3069 0.46559,0.71852 0.89304,1.30641 0.94988,1.30641 0.0568,0 0.0184,-0.13746 -0.0854,-0.30546 -0.11791,-0.19078 -0.0725,-0.23358 0.12099,-0.11401 0.17038,0.1053 0.24827,0.29097 0.1731,0.41261 -0.18357,0.29702 0.95332,2.39986 1.21128,2.24043 0.11171,-0.069 0.28927,0.0139 0.39457,0.18425 0.11958,0.19347 0.0768,0.23889 -0.114,0.12099 -0.60477,-0.37377 -0.28244,0.56541 1.1746,3.4225 2.13009,4.17687 2.82105,4.68248 4.67622,3.42186 z m -24.937933,-21.8499 c -0.36173,-0.1443 -0.87952,-0.20435 -1.15065,-0.13345 -0.27113,0.0709 -0.4207,0.0566 -0.33237,-0.0317 0.21594,-0.21594 -1.20613,-1.13327 -1.48737,-0.95945 -0.12182,0.0753 -0.20445,0.0387 -0.18361,-0.0812 0.0208,-0.11996 0.022,-0.3967 0.002,-0.61498 l -0.0354,-0.39687 -0.25648,0.39687 c -0.21143,0.32717 -0.25719,0.30161 -0.26053,-0.14552 -0.002,-0.29832 -0.1259,-0.66424 -0.27483,-0.81317 -0.14893,-0.14893 -0.31572,-0.50016 -0.37065,-0.78052 -0.0549,-0.28036 -0.30517,-1.0207 -0.55609,-1.6452 -0.25092,-0.6245 -0.38179,-1.20989 -0.29081,-1.30087 0.091,-0.091 0.16541,0.0401 0.16541,0.29117 0,0.25113 0.1119,0.38743 0.24867,0.30291 0.148,-0.0915 0.10059,-0.50808 -0.11712,-1.02914 -0.50549,-1.20981 -0.68429,-3.02362 -0.41445,-4.20435 0.13207,-0.57788 0.12792,-0.9295 -0.01,-0.84429 -0.12996,0.0803 -0.2363,0.0152 -0.2363,-0.14469 0,-0.36195 1.02037,-2.38633 1.2028,-2.38633 0.0735,0 -0.0567,0.36825 -0.28947,0.81834 -0.62579,1.21015 -0.33913,1.16978 0.32683,-0.046 0.31423,-0.57367 0.47388,-0.98281 0.35477,-0.9092 -0.43706,0.27012 -0.4908,-0.6294 -0.0578,-0.96825 l 0.44729,-0.35008 -0.39231,0.52917 -0.39232,0.52917 0.61105,-0.5224 c 0.33646,-0.28764 0.48007,-0.56606 0.31958,-0.61956 -0.47052,-0.15684 1.92084,-1.92394 2.43405,-1.79864 0.25487,0.0622 0.39667,0.005 0.31512,-0.12679 -0.0815,-0.13195 -0.052,-0.24983 0.0658,-0.26195 0.11773,-0.0121 0.51171,-0.0727 0.87551,-0.13464 1.60703,-0.27354 4.619053,-0.35539 3.96875,-0.10785 -0.5222,0.19878 -0.40748,0.22346 0.544863,0.11722 0.96048,-0.10714 1.33269,-0.025 1.82642,0.40325 0.34106,0.2958 0.82727,0.53782 1.08048,0.53782 0.2532,0 0.5318,0.18614 0.6191,0.41364 0.0873,0.2275 0.26616,0.34725 0.39746,0.2661 0.1313,-0.0811 0.3099,0.0379 0.39688,0.26459 0.087,0.22667 0.26214,0.34785 0.38924,0.2693 0.22606,-0.13971 1.03229,0.57909 1.08394,0.9664 0.0779,0.58393 0.36545,0.97103 0.60939,0.82027 0.15474,-0.0956 0.19997,-0.0458 0.10213,0.11248 -0.0966,0.15628 0.008,0.46808 0.23316,0.69289 0.22481,0.22482 0.39682,0.44278 0.38223,0.48435 -0.0146,0.0416 0.029,0.25419 0.097,0.47248 0.59958,1.9265 0.88976,5.21324 0.39095,4.42791 -0.15424,-0.24284 -0.20866,-0.24586 -0.21167,-0.0118 -0.002,0.17331 0.12214,0.3931 0.27636,0.48842 0.18556,0.11468 0.15331,0.2766 -0.0953,0.47864 -0.44967,0.36541 -0.83925,1.33985 -0.43604,1.09065 0.40776,-0.25201 0.0172,1.12852 -0.71289,2.51986 -0.34301,0.65369 -0.62366,1.04431 -0.62366,0.86805 0,-0.17627 0.24886,-0.79794 0.55303,-1.3815 0.30417,-0.58356 0.4939,-1.21231 0.42161,-1.39721 -0.0723,-0.18491 -0.21462,0.039 -0.31631,0.49763 -0.13339,0.60162 -0.58078,1.11739 -1.60653,1.85208 -0.7819,0.56005 -1.42421,1.11459 -1.42735,1.23232 -0.003,0.11773 -0.10492,0.15273 -0.22619,0.0778 -0.12127,-0.0749 -0.22048,0.0257 -0.22048,0.22367 0,0.2828 0.10395,0.29502 0.48507,0.057 0.26678,-0.16661 0.48506,-0.38061 0.48506,-0.47556 0,-0.095 0.20816,-0.25251 0.46258,-0.35014 0.30463,-0.1169 0.21303,0.083 -0.26829,0.58535 -0.40197,0.41957 -0.6399,0.86299 -0.52872,0.98537 0.11118,0.12238 0.066,0.14468 -0.10048,0.0496 -0.16644,-0.0951 -0.73199,0.006 -1.25677,0.22571 -1.10806,0.46298 -1.27879,0.31398 -0.25492,-0.22248 0.44695,-0.23418 0.59015,-0.43378 0.39688,-0.55323 -0.1663,-0.10277 -0.30236,-0.0719 -0.30236,0.0686 0,0.14049 -0.25674,0.18829 -0.57054,0.10623 -0.33902,-0.0887 -0.5054,-0.0438 -0.41003,0.11051 0.0883,0.14284 -0.10146,0.2509 -0.42164,0.24012 -0.4109,-0.0138 -0.5823,0.13504 -0.58264,0.50604 -2.9e-4,0.32088 -0.206413,0.55831 -0.529163,0.60953 -0.43617,0.0692 -0.45924,0.0358 -0.13182,-0.19085 l 0.39688,-0.27476 -0.39688,-0.008 c -0.31702,-0.006 -0.32621,-0.0529 -0.0457,-0.23076 0.22029,-0.13966 -0.27891,-0.27325 -1.33911,-0.35835 -1.91166,-0.15345 -3.61797,-0.82331 -4.93735,-1.9383 -0.93838,-0.79301 -1.87996,-1.1082 -1.87996,-0.6293 0,0.15376 0.21853,0.24254 0.48562,0.19729 0.26709,-0.0453 0.94407,0.32025 1.5044,0.81222 0.56032,0.49197 1.58347,1.12917 2.27366,1.416 0.84792,0.35239 1.20892,0.64132 1.11313,0.89094 -0.1632,0.42529 -0.48081,0.44192 -1.40429,0.0735 z m 5.364483,-1.68508 c 5.29574,-1.37937 8.14767,-7.35943 5.523,-11.58091 -3.14323,-5.05551 -9.164453,-5.94294 -13.161023,-1.93971 -5.84984,5.85958 -0.34706,15.60046 7.638023,13.52062 z m 26.98771,-2.22372 c -2.16183,-0.62787 -4.53634,-2.60449 -3.72853,-3.10375 0.1713,-0.10587 0.21986,-0.0618 0.11642,0.10554 -0.0976,0.15795 -0.0669,0.3555 0.0682,0.43901 0.13512,0.0835 0.21595,-0.0506 0.17963,-0.2981 -0.0363,-0.24747 -0.23423,-0.50548 -0.43979,-0.57335 -0.51147,-0.16888 -0.90499,-0.71222 -1.75185,-2.41882 l -0.72213,-1.45521 -0.008,-2.64583 -0.008,-2.64583 0.69075,-1.47283 c 0.82284,-1.75447 2.21204,-3.17306 3.96062,-4.04441 0.7026,-0.35012 1.20355,-0.71049 1.11322,-0.80082 -0.14954,-0.14954 0.31115,-0.26778 0.77433,-0.19874 0.1039,0.0155 0.12854,-0.12916 0.0548,-0.32145 -0.0744,-0.19393 0.0425,-0.3496 0.26247,-0.3496 0.21814,0 0.3353,0.0992 0.26035,0.22049 -0.075,0.12126 0.28748,0.22048 0.80539,0.22048 0.51791,0 0.94165,-0.0932 0.94165,-0.20717 0,-0.17758 0.36529,-0.19449 1.70422,-0.0789 0.13695,0.0118 0.0179,0.19799 -0.26458,0.4137 l -0.51359,0.3922 0.90103,-0.16892 c 0.57949,-0.10864 0.84201,-0.0734 0.73561,0.0987 -0.10233,0.16558 0.0988,0.21715 0.52735,0.13523 0.43686,-0.0835 0.63043,-0.0316 0.52401,0.14064 -0.0935,0.15126 0.0365,0.25689 0.29141,0.2368 0.25309,-0.0199 0.43183,0.10827 0.3972,0.28493 -0.0346,0.17667 0.093,0.26135 0.28365,0.1882 0.20354,-0.0781 0.87714,0.55381 1.63183,1.53087 0.70686,0.91514 1.55313,1.90202 1.8806,2.19306 1.29701,1.15272 1.96519,5.33256 0.8971,5.61188 -0.29104,0.0761 -0.53178,0.33285 -0.53498,0.57054 -0.003,0.23769 -0.2343,0.93549 -0.51356,1.55067 -0.35006,0.77114 -0.41773,1.17415 -0.21789,1.29765 0.16369,0.10117 0.21514,0.0583 0.1182,-0.0986 -0.0944,-0.15275 0.009,-0.34706 0.22983,-0.4318 0.32862,-0.1261 0.34994,-0.0578 0.1175,0.37656 -0.15619,0.29185 -0.39139,0.46425 -0.52265,0.38312 -0.13127,-0.0811 -0.75037,0.4048 -1.37579,1.07983 -1.27769,1.37906 -1.50732,1.77338 -0.89616,1.53885 0.2296,-0.0881 0.34022,-0.28518 0.24581,-0.43793 -0.0944,-0.15276 -0.0477,-0.20113 0.10383,-0.10748 0.28617,0.17686 0.95895,-0.43513 0.73002,-0.66406 -0.0715,-0.0715 0.0434,-0.13 0.25524,-0.13 0.21188,0 0.31569,0.11253 0.23069,0.25007 -0.085,0.13754 0.01,0.36078 0.21007,0.4961 0.2999,0.20236 0.29399,0.23261 -0.0332,0.17043 -0.35561,-0.0676 -1.40493,0.48762 -2.70371,1.43056 -0.36828,0.26738 -0.52061,0.2611 -0.79375,-0.0327 -0.27668,-0.29762 -0.27059,-0.32513 0.0336,-0.15161 0.24345,0.13888 0.30896,0.11063 0.18996,-0.0819 -0.20056,-0.32451 -0.95845,-0.13437 -0.95845,0.24046 0,0.12995 0.14883,0.23989 0.33073,0.24432 0.1819,0.004 0.10318,0.14014 -0.17494,0.30159 -0.37213,0.21604 -0.63319,0.21391 -0.98859,-0.008 -0.68673,-0.42887 -0.93794,-0.37662 -1.09604,0.22793 -0.0852,0.32566 -0.0329,0.46428 0.13576,0.36005 0.15303,-0.0946 0.22109,-0.0101 0.15399,0.19124 -0.18107,0.54322 -1.98124,0.54611 -3.84036,0.006 z m 5.25999,-2.03475 c 4.07531,-1.33132 6.38691,-6.59102 4.82243,-10.97271 -1.58516,-4.43963 -7.07824,-6.76533 -11.08526,-4.69336 -9.42898,4.87558 -3.80097,18.9537 6.26283,15.66607 z m -68.031623,-7.04465 c -1.37037,-0.67831 -2.21431,-1.44359 -1.99079,-1.80524 0.0861,-0.13936 -0.13689,-0.64103 -0.49559,-1.11483 -0.3587,-0.4738 -0.70626,-1.15911 -0.77237,-1.52291 l -0.12019,-0.66146 -0.036,0.63648 c -0.0198,0.35007 0.26162,1.02673 0.62543,1.5037 0.69126,0.90629 0.7949,1.16743 0.46302,1.16664 -0.30374,-7.3e-4 -1.69159,-2.30477 -1.62442,-2.69679 0.0326,-0.19 -0.0317,-0.78263 -0.14288,-1.31695 -0.23298,-1.12014 0.0566,-2.91349 0.37362,-2.31405 0.10913,0.20632 0.27932,0.91091 0.37821,1.56576 0.45,2.97998 2.68316,5.73109 5.05036,6.2217 l 0.79375,0.16451 -0.92604,-0.47566 c -2.62933,-1.35055 -4.48247,-4.24259 -4.71704,-7.3615 -0.10213,-1.35794 -0.19093,-1.67875 -0.33075,-1.19488 l -0.19113,0.66145 -0.0264,-0.7359 c -0.0159,-0.44241 0.13883,-0.79931 0.38785,-0.89487 0.31756,-0.12185 0.37567,-0.38719 0.24899,-1.13698 -0.12173,-0.72052 -0.055,-1.06948 0.25329,-1.32537 l 0.41853,-0.34735 -0.16366,0.50045 c -0.09,0.27524 0.15513,-0.0349 0.54476,-0.68916 0.38963,-0.65428 0.84186,-1.36866 1.00496,-1.5875 0.1631,-0.21885 -0.17908,0.0486 -0.76041,0.59429 -1.12473,1.05581 -1.41486,1.19773 -1.33491,0.65301 0.0772,-0.52573 1.22805,-2.04207 1.54992,-2.04207 0.15817,0 0.0608,0.26789 -0.21645,0.59531 l -0.50403,0.59531 0.58907,-0.49838 c 0.32399,-0.27411 0.52902,-0.59556 0.45561,-0.71433 -0.0734,-0.11877 0.108,-0.34517 0.40312,-0.50312 0.29511,-0.15794 0.53657,-0.20975 0.53657,-0.11513 0,0.0946 0.31608,-0.0351 0.7024,-0.2882 0.56836,-0.3724 0.67351,-0.38492 0.55097,-0.0656 -0.12577,0.32776 -0.0466,0.34515 0.46736,0.1026 0.34033,-0.16061 0.5984,-0.41266 0.5735,-0.56012 -0.0808,-0.47846 5.27764,-0.57034 5.64327,-0.0968 0.0728,0.0942 0.48948,0.20881 0.92604,0.25459 0.90141,0.0945 1.51378,0.45588 1.31569,0.77639 -0.0735,0.11897 0.006,0.30247 0.17609,0.40777 0.20464,0.12648 0.2385,0.0761 0.0998,-0.14833 -0.14086,-0.22791 -0.089,-0.29582 0.15755,-0.20625 0.20216,0.0734 0.3378,0.26749 0.30142,0.4312 -0.0364,0.16371 0.0231,0.27002 0.13229,0.23624 0.26965,-0.0835 1.36597,0.87256 1.69996,1.48241 0.21323,0.38935 0.19487,0.45068 -0.0861,0.28745 -0.19642,-0.11412 -0.0375,0.0967 0.3532,0.46859 0.516,0.49114 0.66746,0.84001 0.55363,1.27528 -0.1173,0.44859 -0.07,0.54562 0.18816,0.38606 0.26419,-0.16328 0.3037,-0.0492 0.16893,0.48779 -0.10077,0.40151 -0.065,0.70092 0.0837,0.70092 0.34928,0 0.31539,2.78175 -0.05,4.10104 -0.16119,0.58209 -0.27348,1.14335 -0.24951,1.24725 0.024,0.10391 -0.11659,0.12746 -0.31232,0.0523 -0.3047,-0.11692 -1.0789,1.1526 -1.08992,1.78721 -0.002,0.097 -0.11144,0.27561 -0.24392,0.39687 -0.14259,0.13053 -0.15289,0.0689 -0.0253,-0.15112 0.11858,-0.20438 -0.25329,0.0933 -0.82637,0.66146 -1.25547,1.24474 -2.89978,2.37249 -3.8023,2.6078 l -0.66145,0.17246 0.52916,-0.43794 0.52917,-0.43794 -0.61651,0.18421 c -0.33909,0.10132 -1.73174,0.19982 -3.09479,0.21888 -1.36306,0.0191 -2.33578,0.12526 -2.16162,0.23598 0.73202,0.46535 -0.54096,0.17737 -1.65629,-0.37469 z m 8.62964,-1.35341 c 4.05936,-2.06048 5.65904,-8.05459 3.16712,-11.86739 -0.45539,-0.69676 -0.927,-1.26898 -1.04803,-1.2716 -0.12103,-0.003 -0.73907,-0.43005 -1.37343,-0.94986 -0.63436,-0.51981 -1.22163,-0.92844 -1.30504,-0.90806 -0.0834,0.0204 -0.78643,-0.0947 -1.56227,-0.25579 -5.3697,-1.11475 -10.27407,4.40652 -8.80644,9.91417 1.37904,5.1752 6.40895,7.63238 10.92809,5.33853 z m 80.523533,-9.22763 c -2.08117,-0.54354 -2.83669,-0.84555 -4.0349,-1.61289 -1.35731,-0.86923 -1.56027,-1.12139 -0.72724,-0.90355 0.33686,0.0881 0.46547,0.0348 0.35347,-0.14639 -0.11475,-0.18567 3e-4,-0.22193 0.33037,-0.10414 0.37023,0.13214 0.32854,0.0397 -0.15504,-0.34385 l -0.66146,-0.52459 -0.33073,0.43938 c -0.40042,0.53198 -0.43603,0.23565 -0.0568,-0.47289 0.21755,-0.4065 0.18712,-0.51177 -0.14791,-0.51177 -0.23199,0 -0.34821,-0.11907 -0.25828,-0.26459 0.0899,-0.14552 0.0931,-0.26458 0.007,-0.26458 -0.086,0 -0.26411,0.26789 -0.39572,0.59531 l -0.23928,0.59531 -0.0168,-0.50279 c -0.009,-0.27654 -0.33563,-1.1545 -0.72533,-1.95103 -0.70488,-1.44072 -1.25234,-4.90582 -0.63647,-4.02847 0.21412,0.30504 0.27522,0.15197 0.26404,-0.66146 -0.0114,-0.83149 -0.0633,-0.94491 -0.24193,-0.52916 l -0.22739,0.52916 -0.0186,-0.57641 c -0.0102,-0.31703 0.14326,-0.73827 0.34109,-0.9361 0.43376,-0.43376 1.53303,-2.8089 1.58648,-3.42785 0.0433,-0.50157 1.08759,-1.78941 1.49167,-1.83958 0.54657,-0.0679 0.69151,-0.12247 1.92376,-0.72468 1.84504,-0.90168 3.92911,-1.01624 5.8832,-0.32341 0.87312,0.30957 1.81688,0.61716 2.09724,0.68352 0.28036,0.0664 0.63755,0.25999 0.79375,0.43026 0.21059,0.22956 0.18141,0.2536 -0.11287,0.093 -0.25941,-0.14157 -0.22425,-0.0197 0.10151,0.35182 0.27411,0.31262 0.61993,0.49328 0.76848,0.40147 0.15473,-0.0956 0.18947,-0.0365 0.0813,0.13853 -0.11123,0.17998 -0.0228,0.30547 0.2154,0.30547 0.2223,0 0.35174,0.14882 0.28765,0.33073 -0.19044,0.54043 0.544,1.26836 1.20432,1.19366 l 0.61152,-0.0692 0.59754,1.71987 c 0.70999,2.0435 0.62285,3.96868 -0.17963,3.96868 -0.41934,0 -1.35312,2.15204 -1.43505,3.30729 -0.0103,0.14552 -0.60661,0.85989 -1.32509,1.5875 -0.71848,0.7276 -1.27778,1.42106 -1.24288,1.54102 0.0349,0.11995 -0.0345,0.15758 -0.15419,0.0836 -0.11969,-0.074 -0.3858,-0.0306 -0.59134,0.0965 l -0.37373,0.23098 0.4525,0.5 c 0.72653,0.80281 0.54478,1.02999 -1.06885,1.33606 -2.51699,0.4774 -3.06754,0.51292 -4.03489,0.26027 z m 3.28969,-2.26116 c 4.34276,-1.54481 6.59122,-6.99063 4.62094,-11.19202 -3.73096,-7.95583 -14.5851,-5.49543 -14.64349,3.31936 -0.0379,5.71658 4.98729,9.66381 10.02255,7.87266 z m -53.89958,-7.02362 c -0.11049,-0.28793 0.021,-0.45971 0.41983,-0.54857 0.31937,-0.0712 -0.41712,-0.0648 -1.63666,0.0141 -1.59537,0.10324 -2.16616,0.0607 -2.0349,-0.15169 0.10033,-0.16235 0.0526,-0.29518 -0.10608,-0.29518 -0.158673,0 -0.357033,0.17859 -0.440793,0.39687 -0.0838,0.21829 -0.31815,0.39688 -0.52087,0.39688 -0.20271,0 -0.36856,-0.17859 -0.36856,-0.39688 0,-0.21828 0.19843,-0.39687 0.44097,-0.39687 0.24253,0 0.36673,-0.0742 0.27599,-0.16498 -0.0907,-0.0907 -0.37847,-0.072 -0.63941,0.0417 -0.26093,0.11369 -0.65302,0.19139 -0.8713,0.17268 -0.2626,-0.0225 -0.28498,0.0156 -0.0661,0.11261 1.49304,0.662 -0.51364,0.6054 -2.79089,-0.0787 -0.82973,-0.24926 -1.56812,-0.46956 -1.64088,-0.48956 -0.30598,-0.0841 -1.27748,-0.49436 -2.56331,-1.08253 -0.75497,-0.34535 -1.4787,-0.62791 -1.60828,-0.62791 -0.22784,0 -0.71689,-0.30126 -4.69196,-2.8903 -1.83369,-1.19433 -8.42046,-7.51875 -8.13154,-7.80767 0.0825,-0.0825 0.011,-0.14994 -0.15873,-0.14994 -0.16978,0 -0.30868,-0.17572 -0.30868,-0.39048 0,-0.21477 -0.23768,-0.78031 -0.52818,-1.25677 -0.53682,-0.88046 -0.79281,-2.60818 -0.26557,-1.79234 l 0.25648,0.39688 0.0226,-0.39688 c 0.0151,-0.26388 0.091,-0.22203 0.22656,0.1249 l 0.20391,0.52177 0.13888,-0.72652 c 0.16214,-0.84818 -0.1132,-1.10741 -0.79095,-0.74468 -0.60441,0.32347 -1.35384,-0.63083 -0.873,-1.11166 0.20535,-0.20535 0.2863,-0.16354 0.2863,0.14787 0,0.2388 0.10187,0.49713 0.22636,0.57408 0.1245,0.0769 0.16677,-0.17185 0.0939,-0.55288 -0.0913,-0.47733 -0.0382,-0.63455 0.17052,-0.50554 0.32994,0.20391 0.39789,-0.24682 0.34119,-2.26335 -0.019,-0.67579 -0.14954,-1.50923 -0.2901,-1.85208 -0.20591,-0.50227 -0.23244,-0.40493 -0.13657,0.50111 0.0684,0.64638 0.007,1.12448 -0.14317,1.12448 -0.14419,0 -0.23239,-0.14341 -0.19601,-0.3187 0.0364,-0.17529 -0.10045,-0.32411 -0.30407,-0.33073 -0.39778,-0.0129 -0.77167,-0.75153 -0.80181,-1.58395 l -0.0186,-0.51359 0.40283,0.51359 c 0.29539,0.3766 0.28056,0.26659 -0.0556,-0.41245 -0.25215,-0.50932 -0.87991,-1.28003 -1.39502,-1.71268 -0.94833,-0.7965 -0.80353,-0.54481 0.59633,1.03657 0.26102,0.29486 0.35701,0.57531 0.2133,0.62321 -0.1437,0.0479 -0.19569,0.25799 -0.11554,0.46687 0.25967,0.67669 -0.15053,0.40171 -0.54835,-0.36758 -0.21256,-0.41106 -0.75094,-1.13753 -1.19641,-1.6144 -0.44546,-0.47687 -0.74382,-0.974 -0.66303,-1.10472 0.0808,-0.13073 0.0352,-0.23769 -0.1012,-0.23769 -0.25967,0 -1.01117,-1.58101 -0.90744,-1.90905 0.0329,-0.10409 -0.0649,-0.51749 -0.21747,-0.91867 -0.44141,-1.161 -0.47928,-2.50865 -0.066,-2.35007 0.19222,0.0737 0.34948,0.0188 0.34948,-0.12218 0,-0.14095 -0.17859,-0.25628 -0.39687,-0.25628 -0.21829,0 -0.39688,-0.0987 -0.39688,-0.21944 0,-0.1207 0.23461,-0.20999 0.52135,-0.19844 l 0.52135,0.021 0.10918,-3.57188 c 0.10558,-3.45388 1.16238,-8.87104 2.02522,-10.3813 0.14437,-0.25269 0.26248,-0.67299 0.26248,-0.934 0,-2.04509 5.76945,-10.83765 9.48822,-14.45992 0.73476,-0.7157 1.27981,-1.39208 1.21121,-1.50307 -0.0686,-0.11099 0.0147,-0.28796 0.18506,-0.39326 0.19347,-0.11957 0.23889,-0.0768 0.12099,0.11401 -0.10383,0.168 -0.0773,0.30546 0.059,0.30546 0.32294,0 0.87746,-0.66986 0.70078,-0.84654 -0.075,-0.075 0.0749,-0.30218 0.33302,-0.50482 l 0.46942,-0.36843 -0.36313,0.46302 c -0.49451,0.63055 -0.0496,0.57397 0.76,-0.0967 0.53196,-0.44064 0.55944,-0.51445 0.14036,-0.37701 -0.28661,0.094 -0.42723,0.077 -0.3125,-0.0377 0.11473,-0.11474 0.5647,-0.22652 0.99993,-0.24841 l 0.79132,-0.0398 -0.5494,0.38481 c -0.30216,0.21165 -0.49097,0.47933 -0.41957,0.59486 0.0714,0.11553 -0.80952,0.99634 -1.9576,1.95736 -1.14808,0.96102 -2.60349,2.34658 -3.23424,3.07901 -1.05477,1.22479 -2.07448,1.93368 -1.24994,0.86894 0.2919,-0.37694 0.24873,-0.36932 -0.23219,0.041 -0.60522,0.51638 -0.79978,0.84702 -0.32617,0.55431 0.44693,-0.27621 0.29275,0.30924 -0.18308,0.69521 l -0.44766,0.36312 0.23387,-0.39687 0.23387,-0.39688 -0.44767,0.36313 c -0.48464,0.39312 -0.61375,0.69679 -0.18308,0.43062 0.4675,-0.28893 0.26448,0.2415 -0.40507,1.05834 -0.35785,0.43656 -0.65122,0.68406 -0.65195,0.55 -7.2e-4,-0.13407 0.20263,-0.49125 0.45189,-0.79375 l 0.4532,-0.55 -0.62855,0.57957 c -0.3457,0.31876 -0.64881,0.85455 -0.67357,1.19062 -0.0248,0.33608 -0.18832,0.61106 -0.36346,0.61106 -0.47148,0 -0.83671,0.71831 -0.67266,1.32291 0.10243,0.37747 0.0733,0.428 -0.10151,0.17626 -0.19788,-0.28494 -0.27708,-0.26955 -0.41117,0.0799 -0.10592,0.27601 -0.0611,0.3679 0.12381,0.25364 0.1968,-0.12163 0.22937,0.0227 0.10143,0.44928 -0.10366,0.34564 0.43307,-0.26453 1.19273,-1.35593 6.54108,-9.39761 14.01937,-14.27906 24.704053,-16.12556 4.14015,-0.7155 4.46458,-0.70044 5.55607,0.2579 0.6774,0.59477 0.88048,0.67906 0.78849,0.32727 -0.0682,-0.26061 -0.47666,-0.67629 -0.90779,-0.92372 -1.20214,-0.68994 -1.47647,-1.92176 -0.2861,-1.28469 0.29365,0.15715 0.60271,0.50251 0.6868,0.76746 0.14954,0.47116 1.69134,1.37092 2.34916,1.37092 0.18238,0 0.34956,0.23855 0.37152,0.5301 0.0334,0.4434 -0.072,0.502 -0.64461,0.35829 -0.44596,-0.11193 -0.62497,-0.0754 -0.51361,0.10477 0.28482,0.46086 2.72854,0.92062 3.86907,0.72793 1.74272,-0.29443 1.21162,-0.60252 -0.79157,-0.45919 l -1.85758,0.13291 0.17292,-0.45061 c 0.12253,-0.31932 0.25518,-0.36834 0.45528,-0.16823 0.1553,0.1553 0.40738,0.28054 0.56018,0.27831 0.15279,-0.002 0.11163,-0.10927 -0.0915,-0.23788 -0.60717,-0.38445 -0.12225,-1.03925 0.91351,-1.23356 0.99882,-0.18738 1.56739,0.18636 1.31855,0.86671 -0.0673,0.18396 0.038,0.25813 0.25065,0.17654 0.20169,-0.0774 0.30657,-0.29741 0.23308,-0.48893 -0.0735,-0.19152 0.0138,-0.43932 0.19396,-0.55067 0.23269,-0.14381 0.27536,-0.0664 0.14733,0.26727 -0.1405,0.36613 -0.0807,0.43155 0.27093,0.29661 l 0.45118,-0.17314 -0.49066,0.54217 c -0.26986,0.2982 -0.41201,0.62082 -0.31589,0.71695 0.0961,0.0961 0.17476,0.016 0.17476,-0.17802 0,-0.19402 0.0786,-0.27416 0.17471,-0.17807 0.0961,0.0961 0.33066,-0.048 0.52128,-0.32009 l 0.34657,-0.4948 1.13237,0.2181 c 4.65996,0.89754 11.18266,4.49131 15.22736,8.38974 1.8192,1.75341 1.77363,1.44133 -0.0721,-0.49371 -0.80036,-0.8391 -1.45521,-1.46036 -1.45521,-1.38059 0,0.0798 -0.17728,-0.002 -0.39396,-0.18191 -0.21668,-0.17983 -0.34877,-0.40276 -0.29354,-0.49542 0.0552,-0.0927 -0.84922,-0.85816 -2.0099,-1.70113 -1.16068,-0.84298 -2.02404,-1.39308 -1.91859,-1.22245 0.11985,0.19392 0.0539,0.2643 -0.17582,0.18771 -0.20216,-0.0674 -0.36756,-0.29119 -0.36756,-0.49734 0,-0.21279 -0.31647,-0.41121 -0.73209,-0.45898 -0.40265,-0.0463 -0.67646,-0.17416 -0.60847,-0.28418 0.068,-0.11001 -0.13835,-0.19121 -0.45853,-0.18043 -0.33208,0.0112 -0.55375,-0.12248 -0.51601,-0.31113 0.0385,-0.19268 -0.20477,-0.33073 -0.58287,-0.33073 -0.7449,0 -1.99682,-0.51448 -1.99682,-0.82061 0,-0.65734 1.463,-0.29641 3.43958,0.84856 0.21828,0.12645 0.71715,0.40937 1.10859,0.62872 0.39144,0.21935 1.52253,0.99745 2.51354,1.72911 0.99101,0.73166 1.92089,1.41785 2.06641,1.52486 0.14552,0.107 0.60998,0.4165 1.03213,0.68776 8.85714,5.69148 14.62437,20.65122 12.57282,32.61296 -1.1552,6.73545 -3.415,12.26572 -5.01209,12.26572 -0.43321,0 -0.78765,0.11664 -0.78765,0.25921 0,0.14256 -0.49494,0.5117 -1.09986,0.82031 -0.60493,0.30861 -1.61696,1.08563 -2.24896,1.7267 l -1.1491,1.1656 v 1.94646 1.94646 l -0.8174,1.02857 c -0.44957,0.56571 -0.90407,1.02856 -1.01,1.02856 -0.10593,0 -1.28726,0.77391 -2.62518,1.7198 -5.49122,3.8822 -14.12954,7.08379 -18.63231,6.90564 -0.58958,-0.0233 -0.99219,0.0832 -0.99219,0.26254 0,0.21103 0.53713,0.25664 1.78594,0.15164 1.38779,-0.11668 1.57949,-0.0949 0.85989,0.0977 -0.50932,0.13634 -2.42464,0.32656 -4.25628,0.42272 l -3.33024,0.17483 z m 6.82134,-1.26659 c 7.23623,-0.86232 14.00668,-3.80522 19.64532,-8.53921 l 1.91822,-1.61048 v -1.61367 c 0,-4.06142 2.18383,-6.7368 5.49904,-6.7368 h 1.01811 l 0.54929,-0.99218 c 9.52801,-17.2106 -0.38179,-40.85824 -19.99172,-47.70598 l -2.44043,-0.8522 -1.37912,0.76246 c -2.59666,1.43558 -5.91219,0.91682 -8.6011,-1.34575 l -0.81512,-0.68588 -2.48272,0.39951 c -18.990803,3.05592 -31.173923,16.60161 -31.146823,34.63031 0.005,3.67944 0.37595,7.13472 0.77976,7.27352 2.8829,0.991 4.94544,5.46046 3.90121,8.45383 l -0.39359,1.12827 1.45749,2.17903 c 7.58074,11.33356 19.28064,16.82841 32.482183,15.25522 z m -61.383333,-3.41891 -1.05834,-0.18949 0.84429,-0.0375 c 1.28972,-0.0574 1.24586,-0.43442 -0.0505,-0.43442 -0.62706,0 -1.09177,0.0782 -1.03271,0.17377 0.0591,0.0956 -0.14096,0.10881 -0.4445,0.0294 -0.3608,-0.0944 -0.44486,-0.21048 -0.24277,-0.33538 0.21571,-0.13332 0.17595,-0.24217 -0.13156,-0.36017 -0.60812,-0.23336 -0.72017,-0.21269 -0.52847,0.0975 0.20845,0.33728 -1.08241,-0.20893 -2.05576,-0.86987 -0.82214,-0.55826 -1.50041,-1.72183 -1.80756,-3.10089 l -0.20626,-0.92604 0.36969,0.49877 0.36969,0.49878 -0.15817,-1.02794 c -0.087,-0.56537 -0.2665,-1.16617 -0.39889,-1.33512 -0.1464,-0.18681 -0.13918,-0.36993 0.0184,-0.46734 0.33064,-0.20435 0.44183,0.002 0.70347,1.30368 0.11697,0.58208 0.22689,1.11787 0.24427,1.19063 0.2974,1.24491 2.56371,3.60102 3.80666,3.9575 l 0.85668,0.24569 -1.32144,-1.18809 c -0.76569,-0.68843 -1.63306,-1.82265 -2.06238,-2.69691 l -0.74093,-1.50882 0.008,-2.38125 c 0.0106,-3.212 0.56956,-4.41937 3.21512,-6.94531 l 2.00907,-1.91823 h 1.83135 c 1.15352,0 1.77083,0.0979 1.66783,0.26458 -0.18435,0.29828 0.20978,0.36348 0.49189,0.0814 0.37629,-0.37629 1.18479,-0.31949 1.5311,0.10757 0.24944,0.3076 0.2578,0.38144 0.0275,0.2431 -0.1891,-0.1136 -0.33073,-0.0666 -0.33073,0.10981 0,0.17108 0.18425,0.2378 0.41363,0.14978 0.89923,-0.34506 3.32886,1.56046 4.24257,3.32739 2.57508,4.97966 -1.33395,13.17889 -6.28311,13.17889 -0.41489,0 -0.75434,0.11906 -0.75434,0.26458 0,0.29251 -1.40904,0.29251 -3.04271,0 z m 5.58818,-1.60296 c 3.43594,-1.66331 5.25426,-6.40101 3.8312,-9.98235 -0.61621,-1.55078 -0.65691,-1.73755 -0.33535,-1.53882 0.12126,0.075 0.22048,-0.0352 0.22048,-0.24476 0,-0.26166 -0.0973,-0.30028 -0.31059,-0.12327 -0.218,0.18092 -0.56429,-0.0579 -1.16152,-0.80109 -4.14339,-5.15589 -12.30737,-1.55414 -12.30737,5.42971 0,5.6088 5.41084,9.51273 10.06315,7.26058 z M 165.77219,159.13613 c -1.33199,-0.2513 -4.6302,-1.66528 -4.6302,-1.98502 0,-0.12816 -0.11907,-0.15945 -0.26459,-0.0695 -0.14552,0.0899 -0.26458,0.0374 -0.26458,-0.11668 0,-0.1541 -0.1786,-0.28019 -0.39688,-0.28019 -0.21828,0 -0.39687,-0.10518 -0.39687,-0.23373 0,-0.12855 -0.23669,-0.29562 -0.52598,-0.37127 -0.28929,-0.0756 -0.64353,-0.44672 -0.7872,-0.82461 -0.14368,-0.37788 -0.44276,-0.68706 -0.66465,-0.68706 -0.22294,0 -0.40342,-0.22975 -0.40342,-0.51355 0,-0.7981 0.45297,-0.8844 0.64413,-0.12273 0.13137,0.52342 0.25183,0.61625 0.51559,0.39734 0.1893,-0.1571 0.43341,-0.19737 0.54248,-0.0895 0.10907,0.10787 -0.0209,-0.22058 -0.28892,-0.7299 -0.26798,-0.50933 -0.5795,-0.96672 -0.69226,-1.01643 -0.79425,-0.35017 -1.41397,-5.83135 -0.7086,-6.26729 0.11118,-0.0687 0.1602,0.8574 0.10893,2.05804 l -0.0932,2.18297 0.2323,-1.98609 c 0.12776,-1.09235 0.47861,-2.56073 0.77967,-3.26308 0.69345,-1.61774 0.68685,-1.93868 -0.0126,-0.61284 -0.29513,0.55943 -0.60176,0.95199 -0.6814,0.87236 -0.20541,-0.20541 0.78984,-1.84185 1.1091,-1.82365 0.14552,0.008 0.83403,-0.51756 1.53002,-1.16858 2.89815,-2.71087 6.48685,-3.09762 9.53694,-1.02778 0.73212,0.49683 0.97158,0.56348 0.97158,0.27043 0,-0.53942 0.29215,-0.48791 1.2529,0.22091 0.59231,0.43699 0.76079,0.7162 0.59451,0.98525 -0.18985,0.30719 -0.35929,0.25644 -0.93191,-0.27907 l -0.69986,-0.65453 0.92596,1.37917 c 1.98666,2.95902 2.32397,6.49335 0.89524,9.38029 -0.51446,1.03953 -0.60904,1.45023 -0.37136,1.61254 0.20742,0.14165 0.13392,0.1908 -0.21027,0.1406 -0.35616,-0.052 -0.50033,0.0526 -0.44098,0.31969 0.0485,0.21828 -0.001,0.30732 -0.11082,0.19786 -0.20412,-0.20412 -1.16799,0.51938 -1.16799,0.87671 0,0.50502 1.21733,-0.21472 2.5837,-1.52758 0.82636,-0.794 1.54576,-1.31381 1.59865,-1.15512 0.0529,0.15868 0.22051,0.21167 0.37248,0.11774 0.15352,-0.0949 0.22432,-0.0148 0.15931,0.18026 -0.0644,0.19306 -0.27497,0.40367 -0.46803,0.46803 -0.20925,0.0697 -0.27641,-0.004 -0.16629,-0.18191 0.38606,-0.62466 -0.26717,-0.24914 -0.76021,0.43702 -0.41858,0.58252 -0.42994,0.64923 -0.0597,0.35085 0.73083,-0.58907 0.75824,-0.19814 0.0531,0.7576 -0.35727,0.48424 -0.5756,1.00013 -0.48519,1.14641 0.0904,0.14629 0.0365,0.18696 -0.11975,0.0904 -0.15627,-0.0966 -0.44799,-0.0257 -0.64827,0.15756 -0.97689,0.89381 -2.4945,1.47979 -5.10248,1.97018 -0.43657,0.0821 -0.91282,0.23208 -1.05834,0.3333 -0.14552,0.10123 -0.5027,0.13912 -0.79375,0.0842 z m 3.2562,-3.1591 c 4.885,-2.32704 5.68735,-9.57964 1.47042,-13.29153 -4.93511,-4.34406 -12.10091,-0.67969 -12.1126,6.19402 -0.0103,6.03721 5.35562,9.61585 10.64218,7.09751 z M 43.725267,142.67984 c -3.12363,-1.45752 -4.8034,-3.33841 -5.35519,-5.99637 l -0.30517,-1.46999 0.45515,-0.50293 c 0.25033,-0.27661 0.55829,-0.43918 0.68437,-0.36126 0.12607,0.0779 0.22922,-0.0369 0.22922,-0.25521 0,-0.21828 -0.11906,-0.47046 -0.26458,-0.56039 -0.14552,-0.0899 -0.25519,-0.30533 -0.2437,-0.47864 0.0149,-0.22554 0.059,-0.22063 0.15489,0.0173 0.0737,0.18281 0.23671,0.2689 0.36224,0.19132 0.12553,-0.0776 0.22277,0.78488 0.21608,1.91658 -0.0155,2.62457 0.58813,3.9568 2.55072,5.62952 l 0.77609,0.66146 -0.73437,-0.9966 c -2.66501,-3.61666 -2.56741,-8.00601 0.25145,-11.30839 0.6823,-0.79934 1.31274,-1.4397 1.40097,-1.42303 0.31319,0.0592 1.88021,-0.79355 1.88021,-1.02319 0,-0.12838 0.26789,-0.16696 0.59531,-0.0857 0.32742,0.0812 0.44018,0.0772 0.25056,-0.009 -0.26126,-0.11865 -0.22922,-0.24418 0.13229,-0.51831 0.56665,-0.42968 0.97335,-0.48891 0.73758,-0.10742 -0.19947,0.32274 0.45931,0.22708 0.69892,-0.10149 0.36079,-0.49477 2.3476,0.10798 2.35189,0.7135 0.003,0.42499 0.063,0.47909 0.23315,0.21043 0.66676,-1.05247 3.69047,1.37746 5.00758,4.02422 0.6822,1.37089 1.13915,4.35834 0.61731,4.03582 -0.21304,-0.13167 -0.3076,0.15692 -0.31165,0.95107 -0.0112,2.20613 -1.67965,4.83429 -4.02382,6.33854 l -1.38223,0.88698 -2.91646,0.0747 -2.91647,0.0748 z m 7.50201,-0.75433 c 7.03249,-3.58771 4.6832,-14.73508 -3.0931,-14.67678 -7.74797,0.0581 -9.85393,11.24157 -2.76275,14.67134 l 1.60284,0.77525 1.59529,-0.1139 c 0.8774,-0.0626 2.07338,-0.3578 2.65772,-0.65591 z m 100.654293,-0.61081 -0.39688,-0.28068 0.3723,-0.14805 c 0.25706,-0.10222 0.1342,-0.26069 -0.39687,-0.51191 -0.5479,-0.25918 -0.60361,-0.33358 -0.19366,-0.25862 0.38627,0.0706 0.53291,-0.006 0.44593,-0.23246 -0.0713,-0.18573 -0.36002,-0.27743 -0.64166,-0.20378 -0.33938,0.0888 -0.51208,-7.9e-4 -0.51208,-0.26552 0,-0.21968 -0.19095,-0.47269 -0.42432,-0.56225 -0.24227,-0.093 -0.35936,-0.33215 -0.27289,-0.55748 0.089,-0.23188 0.001,-0.39464 -0.21236,-0.39464 -0.22695,0 -0.31443,0.1888 -0.23255,0.5019 0.1089,0.41647 -0.0616,0.53448 -1.00154,0.69329 -0.62303,0.10526 -1.29706,0.35565 -1.49784,0.55643 -0.45918,0.45919 -0.71264,0.46021 -1.09092,0.004 -0.24263,-0.29235 -0.1611,-0.34175 0.43063,-0.26092 l 0.72992,0.0997 -0.52917,-0.24965 c -0.29619,-0.13974 -0.37065,-0.25784 -0.16913,-0.26825 0.22688,-0.0117 0.12902,-0.21984 -0.26458,-0.5627 l -0.62462,-0.54411 0.66146,0.33574 c 0.3638,0.18465 0.74647,0.31186 0.85037,0.28269 0.1039,-0.0292 0.12395,0.1539 0.0446,0.40681 l -0.14437,0.45985 0.40576,-0.49621 c 0.23159,-0.28321 0.58158,-0.42874 0.81535,-0.33903 0.22527,0.0864 0.40959,0.0419 0.40959,-0.0991 0,-0.14095 -0.28308,-0.25628 -0.62907,-0.25628 -0.34598,0 -0.77619,-0.17728 -0.95602,-0.39396 -0.17982,-0.21668 -0.4195,-0.33676 -0.53262,-0.26685 -0.11311,0.0699 -0.39728,-0.16534 -0.63148,-0.52277 -0.49475,-0.75509 -0.52551,-0.93308 -0.16123,-0.93308 0.42171,0 1.35509,-1.04885 1.39409,-1.56655 0.0246,-0.32597 0.1902,-0.43223 0.53375,-0.34239 0.38571,0.10087 0.41845,0.18078 0.14505,0.35409 -0.27324,0.1732 -0.25191,0.22474 0.0943,0.22788 0.45736,0.004 0.90073,-0.45579 0.66583,-0.6907 -0.35468,-0.35468 -2.92085,-0.2143 -3.027,0.16558 l -0.1109,0.39688 0.30487,-0.39688 c 0.23138,-0.3012 0.33735,-0.31675 0.43961,-0.0645 0.0741,0.1828 0.25977,0.25511 0.41258,0.16067 0.15281,-0.0944 0.001,0.20247 -0.33694,0.65981 -0.68168,0.92202 -0.93555,1.08769 -0.54311,0.35441 0.1947,-0.36381 0.13441,-0.55264 -0.2539,-0.79513 l -0.50923,-0.31803 0.54549,-0.54549 c 0.59759,-0.59759 0.33112,-1.2837 -0.5145,-1.32472 -0.23685,-0.0115 -0.29444,-0.0767 -0.12799,-0.14498 0.16646,-0.0682 0.24121,-0.35901 0.16613,-0.64614 -0.10239,-0.39152 -0.22179,-0.45129 -0.47753,-0.23905 -0.21847,0.18131 -0.39855,0.18988 -0.50116,0.0239 -0.0881,-0.14253 -0.0392,-0.33394 0.10873,-0.42534 0.42801,-0.26452 0.31338,-0.59078 -0.26026,-0.74079 -0.62373,-0.16311 -0.71386,-0.71709 -0.11668,-0.71709 0.22687,0 0.33835,0.11997 0.24773,0.26659 -0.0953,0.1542 0.12122,0.13629 0.51355,-0.0425 0.83736,-0.38153 0.87757,-0.75049 0.083,-0.76165 -0.72546,-0.0102 -1.85787,-0.96828 -2.41279,-2.04138 -0.46266,-0.89468 -0.35228,-1.12526 0.53866,-1.12526 0.33955,0 0.63224,-0.11907 0.65043,-0.26459 0.0182,-0.14552 0.048,-0.37769 0.0661,-0.51593 0.0785,-0.59641 0.70799,-0.94841 0.96608,-0.54019 0.20527,0.32469 0.25172,0.30084 0.26198,-0.1345 0.007,-0.29104 0.18346,-0.75507 0.39245,-1.03117 0.20899,-0.2761 0.32096,-0.5975 0.24882,-0.71423 -0.0721,-0.11673 0.26033,-0.28569 0.73883,-0.37545 0.93124,-0.1747 2.14196,0.164 2.46717,0.6902 0.1352,0.21875 0.088,0.25324 -0.14747,0.10773 -0.23606,-0.14589 -0.28268,-0.11105 -0.14641,0.10945 0.10997,0.17793 0.36042,0.26192 0.55657,0.18665 0.229,-0.0879 0.3042,-1.8e-4 0.2101,0.24502 -0.0806,0.21004 -0.27152,0.30464 -0.42428,0.21023 -0.16619,-0.10271 -0.19872,-0.0438 -0.081,0.14666 0.15161,0.24532 0.29226,0.23953 0.61336,-0.0253 l 0.41664,-0.34358 -0.31721,0.59531 -0.31721,0.59531 0.47233,0.0186 0.47233,0.0186 -0.52917,0.22739 -0.52916,0.22739 0.7276,0.0186 c 0.55215,0.0141 0.72761,0.14997 0.72761,0.56338 0,0.30164 -0.12002,0.47061 -0.2689,0.37859 -0.1479,-0.0914 -0.19306,-0.2889 -0.10037,-0.43888 0.11121,-0.17994 -0.0105,-0.17689 -0.35777,0.009 -0.28947,0.15492 -0.60149,0.20649 -0.69339,0.11459 -0.0919,-0.0919 -0.16707,0.0314 -0.16707,0.2739 0,0.31742 -0.23147,0.44097 -0.82615,0.44097 -0.66113,0 -0.76729,-0.0709 -0.53146,-0.35508 0.16207,-0.19529 0.20642,-0.44333 0.0985,-0.55121 -0.10788,-0.10788 -0.0771,-0.17212 0.0684,-0.14276 0.70852,0.14294 1.18875,-0.051 1.16974,-0.47231 -0.0133,-0.29445 -0.0708,-0.33859 -0.15802,-0.12125 -0.10477,0.2611 -0.22406,0.26964 -0.50537,0.0362 -0.20253,-0.16808 -0.30668,-0.4052 -0.23144,-0.52693 0.40676,-0.65815 -0.90331,-0.73462 -1.33364,-0.0778 -0.24825,0.37888 -0.31995,0.60765 -0.15934,0.50839 0.26044,-0.16096 0.42682,0.36156 0.31681,0.99489 -0.0208,0.11996 0.0845,0.14247 0.23404,0.05 0.3103,-0.19178 0.24052,0.60133 -0.10111,1.14917 -0.31408,0.50366 -0.73212,-0.17498 -0.52243,-0.84812 0.12702,-0.40775 0.0534,-0.45773 -0.44246,-0.30035 l -0.59484,0.18879 0.15565,-0.95912 0.15564,-0.95913 -0.40201,0.40201 c -0.2211,0.22111 -0.5055,0.33805 -0.63198,0.25988 -0.12649,-0.0782 -0.35407,0.0897 -0.50573,0.3731 -0.20211,0.37765 -0.188,0.55067 0.0529,0.64798 0.23824,0.0962 0.22785,0.13849 -0.0378,0.15363 -0.50307,0.0287 0.86005,1.07922 1.40033,1.07922 0.23171,0 0.42129,0.1786 0.42129,0.39688 0,0.43837 -0.67187,0.54355 -0.9189,0.14385 -0.086,-0.13917 -0.33116,-0.18596 -0.54478,-0.10399 -0.21362,0.082 -0.3884,0.0102 -0.3884,-0.15946 0,-0.16968 0.13745,-0.22355 0.30546,-0.11972 0.18497,0.11432 0.23381,0.0728 0.12382,-0.10512 -0.0999,-0.16165 -0.36845,-0.22223 -0.59675,-0.13462 -0.22831,0.0876 -0.50727,0.0102 -0.61992,-0.17209 -0.14527,-0.23506 -0.25741,-0.24627 -0.38578,-0.0386 -0.0995,0.16106 -0.0479,0.29283 0.11483,0.29283 0.1627,0 0.21017,0.14883 0.10549,0.33073 -0.10468,0.1819 -0.0926,0.24219 0.0268,0.13398 0.11942,-0.10822 0.39188,0.0527 0.60546,0.35767 0.29124,0.41581 0.44038,0.47023 0.59647,0.21768 0.16348,-0.26452 0.35666,-0.23943 0.90059,0.11697 0.38086,0.24955 0.61257,0.583 0.51492,0.74101 -0.10421,0.16861 -0.0257,0.23667 0.19001,0.16476 0.20215,-0.0674 0.36755,-0.2515 0.36755,-0.40915 0,-0.15765 0.0893,-0.37593 0.19844,-0.48507 0.10914,-0.10914 0.19844,-0.0595 0.19844,0.11024 0,0.16978 0.12609,0.30868 0.2802,0.30868 0.15411,0 0.19524,-0.13745 0.0914,-0.30546 -0.11697,-0.18926 -0.0726,-0.23364 0.11667,-0.11668 0.52372,0.32368 0.33639,0.83617 -0.42214,1.15485 -0.49504,0.20799 -0.53699,0.26079 -0.13124,0.16521 0.52716,-0.12419 1.65293,-0.29852 2.26353,-0.35052 0.11772,-0.01 0.15109,-0.12009 0.0742,-0.24459 -0.0769,-0.1245 0.15415,-0.17015 0.51355,-0.10145 0.3594,0.0687 0.65345,2.5e-4 0.65345,-0.15211 0,-0.15236 -0.26667,-0.31507 -0.59261,-0.36157 -0.67701,-0.0966 -0.96061,-0.96652 -0.42561,-1.30557 0.28586,-0.18116 0.28794,-0.22689 0.0104,-0.23014 -0.19049,-0.002 -0.27276,-0.12311 -0.18282,-0.26863 0.0899,-0.14552 0.34211,-0.26459 0.56039,-0.26459 0.21828,0 0.32859,0.11049 0.24513,0.24554 -0.0835,0.13504 0.1126,0.32943 0.4357,0.43198 0.35715,0.11336 0.62662,0.069 0.68735,-0.11324 0.0549,-0.16483 0.21607,-0.29969 0.35805,-0.29969 0.14198,0 0.18456,0.11906 0.0946,0.26458 -0.0899,0.14552 -0.0374,0.26458 0.11667,0.26458 0.15411,0 0.2802,0.12709 0.2802,0.28242 0,0.1661 -0.24518,0.21344 -0.59531,0.11496 -0.32742,-0.0921 -0.47625,-0.0704 -0.33073,0.0483 0.14552,0.11868 0.44318,0.44642 0.66146,0.72833 l 0.39687,0.51256 -0.46302,-0.17353 c -0.25466,-0.0954 -0.46302,-0.0582 -0.46302,0.0828 0,0.14095 0.1786,0.25628 0.39688,0.25628 0.21828,0 0.39687,0.13295 0.39687,0.29544 0,0.16249 0.22547,0.23648 0.50104,0.16442 0.34556,-0.0904 0.48242,-0.004 0.44103,0.27787 -0.033,0.2249 -0.25904,0.43811 -0.5023,0.47382 -0.26938,0.0395 -0.3749,-0.0553 -0.26992,-0.24259 0.11623,-0.20736 0.0828,-0.22134 -0.10265,-0.0429 -0.15127,0.14552 -0.21298,0.6636 -0.13715,1.15128 0.097,0.62365 0.2051,0.78063 0.36445,0.52917 0.17131,-0.27034 0.235,-0.22849 0.26114,0.17163 0.0705,1.07943 0.11346,1.21297 0.45892,1.42731 0.26709,0.16571 0.21875,0.2542 -0.19844,0.3633 -0.66737,0.17452 -0.73979,0.98587 -0.0885,0.99157 l 0.46302,0.004 -0.39467,0.24951 c -0.22598,0.14288 -0.49376,0.15042 -0.62653,0.0177 -0.22521,-0.22521 -1.7484,-0.11645 -2.55068,0.18214 -0.21828,0.0812 -0.69453,0.1309 -1.05833,0.11037 -2.13669,-0.12062 -1.86905,2.45158 0.30883,2.96811 0.39458,0.0936 0.74509,0.0492 0.79503,-0.10058 0.0554,-0.16605 0.59121,-0.19917 1.40897,-0.0871 0.72582,0.0995 1.15199,0.23677 0.94705,0.30508 -0.24301,0.081 -0.0583,0.30007 0.53115,0.62986 l 0.90376,0.50565 -0.79375,-0.1602 -0.79375,-0.1602 0.59974,0.42973 c 0.32986,0.23635 0.52936,0.5436 0.44335,0.68277 -0.086,0.13917 -0.0582,0.22032 0.0617,0.18033 0.25901,-0.0863 0.3504,0.13624 0.3504,0.85334 0,0.59181 -0.20784,0.65475 -0.79375,0.24039 z m 6.12516,-14.24433 c -1.00079,-0.25692 -3.21166,-1.34287 -3.22063,-1.58193 -0.003,-0.0863 -0.24293,-0.45449 -0.53265,-0.8183 -0.31721,-0.39832 -0.46149,-0.47726 -0.36268,-0.19843 0.28776,0.81204 -0.0429,0.50175 -0.93895,-0.88109 -1.01886,-1.57237 -1.31818,-2.56481 -1.58953,-5.27048 -0.10946,-1.0914 -0.24484,-2.10343 -0.30084,-2.24895 -0.11786,-0.30629 0.67159,-1.51555 0.86388,-1.32326 0.0707,0.0707 0.0772,-0.2214 0.0144,-0.64915 -0.0758,-0.51663 0.079,-1.04893 0.46101,-1.58548 0.31634,-0.44426 0.44097,-0.80774 0.27695,-0.80774 -0.16402,0 -0.22463,-0.11906 -0.13469,-0.26458 0.0899,-0.14552 0.34501,-0.26459 0.56684,-0.26459 0.22182,0 0.78519,-0.38695 1.25192,-0.85989 0.46674,-0.47294 1.14142,-0.89108 1.4993,-0.92919 1.07122,-0.11407 1.48266,-0.32326 1.10042,-0.5595 -0.18106,-0.1119 0.3417,-0.2211 1.16168,-0.24267 0.81998,-0.0216 1.64764,-0.16934 1.83925,-0.32836 0.32696,-0.27135 3.15889,0.0483 3.50637,0.39574 0.0682,0.0682 0.37624,-0.0104 0.68453,-0.17459 l 0.56052,-0.29859 -0.36184,0.43865 -0.36185,0.43865 0.83031,-0.0967 c 0.45667,-0.0532 0.90579,0.0255 0.99804,0.17472 0.10434,0.16883 0.0273,0.19128 -0.20388,0.0594 -0.25842,-0.14741 -0.29102,-0.1253 -0.10703,0.0726 0.14552,0.15652 0.88966,0.59697 1.65365,0.97878 0.76398,0.3818 1.38906,0.74612 1.38906,0.80959 0,0.2456 -1.47586,0.01 -1.85208,-0.29594 -0.87042,-0.70729 -3.99541,-1.91448 -5.15938,-1.99307 -1.19753,-0.0808 -3.31016,0.30255 -4.49792,0.81628 -0.58208,0.25176 -1.26669,0.53109 -1.52135,0.62073 -0.25466,0.0896 -0.46761,0.31554 -0.47321,0.50201 -0.006,0.18647 -0.39256,0.57824 -0.8599,0.87061 -0.46734,0.29237 -0.96723,0.79838 -1.11088,1.12448 -0.14365,0.3261 -0.35201,0.5929 -0.46302,0.5929 -0.36726,0 -0.20931,0.73427 0.19099,0.88788 0.23092,0.0886 0.5074,-0.0633 0.67077,-0.36857 0.15286,-0.28562 0.40738,-0.51931 0.5656,-0.51931 0.18864,0 0.17428,0.13663 -0.0417,0.39688 -0.18116,0.21828 -0.23252,0.39687 -0.11412,0.39687 0.11839,0 -0.0157,0.16886 -0.29792,0.37524 -0.28225,0.20639 -0.42406,0.46436 -0.31515,0.57327 0.10891,0.10891 0.23458,0.14841 0.27927,0.0878 1.35218,-1.83455 2.0046,-2.43472 3.41032,-3.13717 l 1.62003,-0.80954 h 2.03493 c 2.28037,0 3.34627,0.28473 4.89201,1.30675 1.6033,1.06008 1.9208,1.22616 1.52135,0.79582 -0.44276,-0.47701 -0.4196,-1.04423 0.0426,-1.04423 0.34652,0 1.14746,0.82894 1.94703,2.01507 l 0.33602,0.49847 -0.16057,-0.66146 c -0.0883,-0.3638 -0.35858,-0.84549 -0.6006,-1.07043 -0.43395,-0.40332 -1.10148,-1.43742 -1.10148,-1.70635 0,-0.076 0.23812,0.0106 0.52916,0.19235 0.29104,0.18176 0.52917,0.50027 0.52917,0.7078 0,0.20753 0.0789,0.29838 0.17544,0.20189 0.24836,-0.24837 1.06315,1.17275 1.40919,2.45786 0.16068,0.59671 0.37623,1.03296 0.479,0.96945 0.10277,-0.0635 0.19713,0.29008 0.20968,0.78577 0.0126,0.49568 -0.1009,0.90124 -0.25212,0.90124 -0.18782,0 -0.18898,0.086 -0.004,0.27129 0.28097,0.28096 -0.0533,2.41579 -0.67167,4.28939 -1.13401,3.43608 -7.50867,6.10794 -11.88945,4.9833 z m 6.13217,-1.58685 c 5.77797,-2.47672 5.82451,-10.45634 0.0758,-12.99839 -4.45868,-1.97161 -9.60328,0.27067 -10.84581,4.72717 -1.64529,5.90102 4.78275,10.83766 10.77001,8.27122 z M 58.351357,115.50179 c -2.75854,-0.57156 -5.07689,-1.71621 -5.14336,-2.53946 -0.009,-0.10914 -0.10531,-0.21018 -0.21445,-0.22453 -1.69466,-0.22281 -3.20352,-4.85699 -2.43209,-7.46966 0.34643,-1.17328 1.04302,-1.47104 1.04302,-0.44583 0,1.23334 0.7549,1.11855 1.3226,-0.20112 1.69588,-3.94218 6.89671,-5.875945 10.98053,-4.08275 1.32703,0.58269 1.25472,0.44979 -0.40217,-0.739135 l -0.55309,-0.39687 0.4311,-0.52917 c 0.23711,-0.29104 0.34617,-0.36489 0.24237,-0.16411 -0.12545,0.24262 -0.0655,0.32357 0.17881,0.24136 0.20216,-0.068 0.52522,0.0654 0.71791,0.2964 0.19269,0.23106 0.27496,0.27127 0.18282,0.0894 -0.27782,-0.54848 0.27579,-0.37183 0.81489,0.26002 l 0.50402,0.590765 -0.52916,-0.392325 -0.52917,-0.39231 0.36071,0.4601 c 0.19839,0.253065 0.4715,0.391645 0.6069,0.307965 0.3564,-0.220275 1.06465,0.44531 0.90807,0.85335 -0.073,0.19031 -5.2e-4,0.42776 0.16113,0.52766 0.19036,0.11765 0.21849,0.0596 0.0799,-0.1647 -0.1427,-0.23089 -0.11079,-0.28252 0.0957,-0.15489 0.17038,0.1053 0.24721,0.29269 0.17074,0.41643 -0.0765,0.12373 0.0631,0.42715 0.31026,0.67427 0.24712,0.24711 0.49475,0.94132 0.5503,1.54268 0.0555,0.60136 0.18544,1.74823 0.28865,2.54859 0.39948,3.09762 -1.58057,6.44539 -4.32351,7.31003 -0.80178,0.25274 -1.45779,0.55685 -1.45779,0.67579 0,0.30459 0.18143,0.27286 1.07147,-0.1874 0.42934,-0.22202 0.78061,-0.34414 0.78061,-0.27138 0,0.36674 -1.66582,0.96714 -1.9354,0.69756 -0.43034,-0.43034 -1.05733,-0.35408 -0.88037,0.10708 0.10007,0.26078 -0.047,0.4347 -0.43471,0.51392 -1.20601,0.24645 -2.45494,0.34844 -2.96722,0.2423 z m 5.82489,-2.48029 c 2.6747,-1.34934 4.28145,-4.5 3.59332,-7.04611 -1.63715,-6.057585 -10.16646,-7.380535 -13.70257,-2.12535 -3.96656,5.89489 3.38448,12.564 10.10925,9.17146 z m 76.460533,-8.99062 c -1.5858,-0.17856 -3.21633,-0.66127 -3.69094,-1.09268 -0.13825,-0.12566 -0.44599,-0.22847 -0.68387,-0.22847 -0.23788,0 -0.75077,-0.35719 -1.13975,-0.79375 -0.38898,-0.43656 -0.82538,-0.79375 -0.96978,-0.79375 -0.14439,0 -0.26254,-0.21967 -0.26254,-0.48816 0,-0.26849 -0.23364,-0.699605 -0.5192,-0.958045 -1.12896,-1.02169 -1.55137,-5.373573 -0.71027,-7.317594 0.22811,-0.52722 0.34009,-1.033236 0.24884,-1.124479 -0.0912,-0.09124 -0.02,-0.165898 0.1584,-0.165898 0.17836,0 0.2492,-0.1215 0.15743,-0.27 -0.0918,-0.1485 0.13932,-0.633885 0.51355,-1.078634 0.37423,-0.444748 0.68042,-0.965185 0.68042,-1.156525 0,-0.191341 0.29765,-0.422599 0.66146,-0.513908 0.3638,-0.09131 0.66145,-0.328454 0.66145,-0.52699 0,-0.198537 0.20836,-0.42435 0.46303,-0.501807 0.25466,-0.07746 1.10847,-0.386182 1.89736,-0.686056 2.47558,-0.941021 7.59402,-0.794222 8.49413,0.243615 0.24879,0.286855 0.56394,0.521555 0.70034,0.521555 0.38683,0 2.20985,1.757514 2.01997,1.947394 -0.0931,0.0931 -0.0384,0.169272 0.12158,0.169272 0.15997,0 0.37403,0.267891 0.47569,0.595313 0.10165,0.327422 0.39139,0.892968 0.64385,1.256771 0.46508,0.670193 0.81569,2.022856 0.80581,3.108854 -0.003,0.327422 0.11232,0.595312 0.25621,0.595312 0.14389,0 0.26162,0.238125 0.26162,0.529167 0,0.291038 -0.12609,0.529168 -0.2802,0.529168 -0.15411,0 -0.2117,-0.11084 -0.12798,-0.246303 0.0837,-0.135465 0.042,-0.314391 -0.0926,-0.397613 -0.13862,-0.08567 -0.24045,0.451596 -0.23473,1.238486 0.006,0.76439 -0.035,1.62793 -0.0902,1.91897 -0.18975,1.00096 -2.50125,3.836465 -3.12747,3.836465 -0.13961,0 -0.35191,0.17523 -0.47176,0.38941 -0.11986,0.21417 -0.4532,0.42598 -0.74076,0.47067 -0.28755,0.0447 -0.65023,0.16091 -0.80595,0.25825 -0.15571,0.0973 -0.57243,0.23661 -0.92604,0.30951 -0.6672,0.13754 -1.55594,0.32989 -2.3177,0.50162 -0.24304,0.0548 -1.15626,0.0192 -2.02938,-0.0791 z m 3.08962,-1.85892 c 7.55192,-2.09751 6.03755,-12.16913 -1.899,-12.629628 l -1.98437,-0.115138 -1.70777,0.888463 c -7.5091,3.90659 -2.67724,14.152803 5.59114,11.856303 z m 4.58483,-1.84221 c 0.20786,0.17251 0.57262,-0.008 1.144,-0.566865 0.8356,-0.81695 1.07735,-1.63702 0.57426,-1.94795 -0.14553,-0.0899 -0.26459,0.0151 -0.26459,0.23335 0,0.21828 -0.11746,0.46947 -0.26102,0.55819 -0.1664,0.10285 -0.17958,-0.0588 -0.0364,-0.44599 0.12522,-0.33851 0.4457,-0.60794 0.72404,-0.60873 l 0.49938,-0.001 -0.0455,-2.556449 c -0.031,-1.741921 -0.17672,-2.795681 -0.4573,-3.307292 l -0.41179,-0.750842 0.14743,1.020688 c 0.10029,0.694395 0.0562,0.964295 -0.13801,0.844281 -0.15699,-0.09702 -0.28543,-0.05032 -0.28543,0.103791 0,0.154109 0.17859,0.280198 0.39687,0.280198 0.2407,0 0.38956,0.23427 0.37828,0.595313 l -0.0186,0.595312 -0.22739,-0.529167 -0.2274,-0.529166 -0.0493,0.529166 -0.0493,0.529167 -0.12976,-0.529167 c -0.25025,-1.02056 -1.14771,-2.778124 -1.41859,-2.778124 -0.15047,0 -0.20895,-0.104574 -0.12996,-0.232386 0.079,-0.127811 -0.44976,-0.787426 -1.17501,-1.46581 -1.26194,-1.180394 -1.69219,-1.910006 -0.9879,-1.675242 0.1819,0.06063 0.33103,0.278915 0.33141,0.48507 3.8e-4,0.206154 0.2385,0.380387 0.52917,0.387184 0.29066,0.0068 0.50014,0.15134 0.46551,0.321207 -0.0374,0.183364 0.11002,0.242465 0.36281,0.145462 0.28635,-0.109885 0.72307,0.174811 1.33366,0.869418 0.49934,0.568043 0.79385,0.79468 0.65447,0.503638 -0.33175,-0.692737 -2.44478,-2.841797 -2.62095,-2.665634 -0.0751,0.07505 -0.49221,-0.116859 -0.92701,-0.426468 -2.1626,-1.539905 -9.05876,-1.128941 -9.05876,0.539839 0,0.142564 -0.10839,0.358427 -0.24086,0.479694 -0.13993,0.128101 -0.16111,0.08191 -0.0505,-0.110243 0.4288,-0.745121 -0.37355,-0.253841 -1.3947,0.853984 -1.22273,1.3265 -1.24663,1.372925 -0.7068,1.372925 0.21188,0 0.32392,-0.09922 0.24897,-0.220486 -0.075,-0.121267 -0.0102,-0.220486 0.14393,-0.220486 0.42434,0 0.32585,0.586783 -0.21699,1.292763 -0.36477,0.474385 -0.53788,0.546431 -0.69646,0.289849 -0.13117,-0.212237 -0.10592,-0.276496 0.0667,-0.169803 0.15276,0.09441 0.34546,-0.0048 0.42823,-0.220529 0.0867,-0.226047 0.0144,-0.365506 -0.17071,-0.32921 -0.54253,0.106361 -0.69508,0.537492 -0.39172,1.107049 l 0.28944,0.543423 -0.49098,-0.396875 c -0.27004,-0.218281 -0.40785,-0.258216 -0.30625,-0.08874 0.1016,0.169472 0.0749,0.348066 -0.0594,0.396875 -0.13426,0.04881 -0.33045,0.554434 -0.43597,1.123611 l -0.19186,1.034866 0.43433,-0.166667 c 0.33376,-0.128077 0.44104,-1.2e-4 0.46332,0.552634 0.0209,0.518508 0.0917,0.400546 0.25375,-0.422577 1.03344,-5.250134 8.00591,-7.503204 12.56241,-4.059392 3.07118,2.321199 3.72017,6.859628 1.36754,9.563283 -0.3183,0.36579 -0.4107,0.51908 -0.20534,0.34064 0.24277,-0.21093 0.48015,-0.23583 0.67856,-0.0712 z M 81.237817,97.664225 c -0.21828,-0.13853 -0.84336,-0.43078 -1.38907,-0.64945 -0.5457,-0.21866 -0.99218,-0.51923 -0.99218,-0.66791 0,-0.18285 0.16564,-0.1817 0.51177,0.004 0.28147,0.15064 0.6089,0.26912 0.7276,0.26329 0.11871,-0.006 -0.11512,-0.19007 -0.51962,-0.40943 -0.4045,-0.21937 -0.66621,-0.51089 -0.58157,-0.647839 0.0846,-0.136944 -0.0118,-0.185403 -0.21434,-0.107687 -0.20253,0.07772 -0.53613,-0.07248 -0.74135,-0.33376 l -0.37312,-0.475062 0.52917,0.38677 c 0.29104,0.212724 0.17947,0.0044 -0.24794,-0.463021 -0.42741,-0.467384 -0.83281,-0.84979 -0.9009,-0.84979 -0.0681,0 0.0784,0.223414 0.3255,0.496476 l 0.44931,0.496476 -0.39141,0.150198 c -0.6317,0.242403 -1.66159,-0.777681 -2.42922,-2.406089 l -0.71427,-1.515186 0.01,-2.289103 0.01,-2.289102 0.71299,-1.216627 c 0.45154,-0.77049 0.89782,-1.216626 1.21702,-1.216626 0.27721,0 0.50402,-0.178594 0.50402,-0.396875 0,-0.218281 0.11907,-0.396875 0.26459,-0.396875 0.14552,0 0.26458,0.178594 0.26458,0.396875 0,0.218281 -0.13294,0.396875 -0.29543,0.396875 -0.17424,0 -0.24235,0.277636 -0.16604,0.676813 0.0952,0.498138 0.0335,0.640027 -0.23374,0.53747 -0.25234,-0.09683 -0.36312,0.07789 -0.36312,0.572684 v 0.712026 l 0.45821,-0.654184 c 0.25201,-0.359801 0.40084,-0.67145 0.33072,-0.692552 -0.25211,-0.07588 0.88833,-1.152257 1.22083,-1.152257 0.18714,0 0.42521,-0.137459 0.52904,-0.305464 0.12492,-0.202124 0.0716,-0.233049 -0.15755,-0.09141 -0.22432,0.138634 -0.28235,0.110498 -0.1647,-0.07986 0.0999,-0.16165 0.34107,-0.23273 0.53593,-0.157956 0.19486,0.07477 0.51847,-0.01972 0.71913,-0.209993 0.42229,-0.400412 0.76717,-0.470894 3.25281,-0.664767 2.71832,-0.212021 4.36142,0.252136 6.38617,1.804021 l 1.70826,1.309304 -0.50661,-0.833046 c -0.27863,-0.458175 -1.04648,-1.279171 -1.70632,-1.824436 l -1.19972,-0.99139 0.71304,-0.323975 c 0.39218,-0.178187 0.61945,-0.229694 0.50504,-0.114461 -0.1144,0.115233 0.24278,0.482411 0.79375,0.81595 0.55097,0.33354 0.89171,0.607045 0.7572,0.607791 -0.13451,7.45e-4 3.9e-4,0.269246 0.29978,0.596668 1.12427,1.22955 1.67987,2.756076 1.00311,2.756076 -0.21828,0 -0.39687,-0.119062 -0.39687,-0.264583 0,-0.145521 -0.0683,-0.196273 -0.1518,-0.112782 -0.0835,0.08349 0.0483,0.538819 0.29294,1.01184 0.50488,0.976341 0.81637,5.00997 0.38688,5.00997 -0.14489,0 -0.26388,0.208359 -0.26443,0.46302 -0.001,0.573779 -1.02832,2.300027 -1.2416,2.086755 -0.0857,-0.08566 0.0101,-0.363687 0.2127,-0.617847 0.20264,-0.254161 -0.22688,0.01681 -0.95448,0.602165 -1.43451,1.154045 -3.02016,1.963822 -3.84544,1.963822 -0.2861,0 -0.52019,0.11906 -0.52019,0.26458 0,0.65935 3.1591,-0.47512 3.935,-1.413099 0.19972,-0.241439 0.48219,-0.43898 0.62771,-0.43898 0.96122,0 -1.88847,1.802389 -3.63667,2.300139 -2.3304,0.66352 -5.1424,0.72471 -4.11466,0.0895 0.19992,-0.12355 -0.002,-0.26295 -0.53646,-0.36978 -0.47155,-0.0943 -0.91771,-0.11112 -0.99148,-0.0373 -0.0738,0.0738 0.0601,0.13413 0.29753,0.13413 0.23741,0 0.5591,0.23812 0.71486,0.52916 0.31567,0.58984 0.29996,0.60446 -0.26458,0.24617 z m 4.93576,-1.96335 c 4.94147,-1.467465 6.7186,-6.637154 3.52771,-10.262191 -2.82475,-3.209083 -8.38658,-3.38242 -11.59551,-0.361379 -5.2811,4.971869 0.67762,12.81822 8.0678,10.62357 z m 26.218933,-1.375622 c -0.25467,-0.06655 -0.47139,-0.320629 -0.48162,-0.564621 -0.015,-0.357178 -0.0629,-0.340509 -0.24599,0.08555 -0.16724,0.389188 -0.23231,0.418351 -0.24599,0.110244 -0.0102,-0.230408 0.0526,-0.490096 0.13957,-0.577083 0.2385,-0.238504 0.91908,0.08991 0.75075,0.362272 -0.0805,0.130273 -0.0489,0.236859 0.0702,0.236859 0.11911,0 0.36924,-0.244488 0.55586,-0.543308 0.27656,-0.442842 0.27609,-0.531871 -0.002,-0.481456 -0.188,0.03402 -0.79717,-0.07154 -1.35373,-0.234564 -0.55656,-0.163029 -1.20117,-0.223797 -1.43247,-0.135039 -0.30292,0.116243 -0.36591,0.0563 -0.22522,-0.214316 0.10742,-0.20663 0.0117,-0.149792 -0.21271,0.126308 -0.22441,0.2761 -0.33561,0.619154 -0.24712,0.762342 0.0885,0.143188 -0.30014,-0.05295 -0.86364,-0.435854 -0.5635,-0.382908 -1.1755,-0.696196 -1.36,-0.696196 -0.1845,0 -0.33364,-0.267891 -0.33141,-0.595313 0.003,-0.481393 0.0531,-0.519366 0.26053,-0.198437 0.14107,0.218281 0.25831,0.277426 0.26054,0.131432 0.002,-0.145993 -0.35314,-0.60257 -0.7897,-1.014615 -0.43656,-0.412045 -0.79375,-0.917674 -0.79375,-1.12362 0,-0.205946 -0.10277,-0.374447 -0.22837,-0.374447 -0.77375,0 -1.4496,-4.927614 -0.8337,-6.078445 0.17116,-0.319802 0.24887,-0.643781 0.1727,-0.719951 -0.19639,-0.19639 0.86854,-2.813646 1.24133,-3.050786 0.23099,-0.146939 0.22655,-0.197909 -0.0175,-0.200933 -0.41961,-0.0052 -1.7319,1.968746 -1.81183,2.725351 -0.0336,0.317839 -0.17189,0.994608 -0.30737,1.503931 -0.38069,1.431226 0.0592,4.763322 0.69858,5.291666 0.088,0.07276 0.38891,0.549011 0.66857,1.058334 0.27966,0.509323 0.66662,1.021254 0.8599,1.137626 0.19328,0.116371 0.35142,0.493123 0.35142,0.837226 v 0.625642 l -0.86996,-0.837227 c -0.47847,-0.460474 -0.82811,-0.927364 -0.77698,-1.037532 0.0511,-0.110168 -0.0925,-0.271472 -0.31915,-0.358453 -0.22667,-0.08698 -0.34924,-0.259891 -0.27239,-0.384244 0.0769,-0.124353 0.0294,-0.439299 -0.10534,-0.69988 -0.56508,-1.092416 -0.93405,-2.10236 -0.99471,-2.722742 -0.17222,-1.761325 -0.10716,-4.039609 0.12332,-4.318589 0.14159,-0.17139 0.34221,-0.765243 0.44583,-1.319672 0.12531,-0.670503 0.30364,-0.963828 0.53257,-0.87598 0.20551,0.07886 0.45052,-0.172987 0.60812,-0.625093 0.14517,-0.416442 0.50342,-0.885327 0.79611,-1.041968 0.29269,-0.156642 0.60778,-0.523054 0.7002,-0.81425 0.0924,-0.291196 0.39814,-0.529447 0.67937,-0.529447 0.28124,0 0.51134,-0.121615 0.51134,-0.270256 0,-0.598043 1.29231,-0.897794 1.81832,-0.42176 l 0.49755,0.450277 0.17922,-0.467028 0.17921,-0.467028 0.24541,0.38946 c 0.26078,0.413833 -0.33042,1.050918 -0.97521,1.050918 -0.53313,0 -2.52381,2.086063 -2.31425,2.425137 0.10849,0.175546 0.0704,0.230431 -0.0908,0.130805 -0.24248,-0.149858 -0.60258,0.339288 -0.57292,0.778222 0.006,0.08448 -0.17437,0.291594 -0.40019,0.460243 -0.8907,0.665215 -1.66385,5.420206 -0.95276,5.85968 0.239,0.147713 0.28465,-0.392762 0.27346,-3.237941 -0.002,-0.603735 0.11945,-0.859896 0.40895,-0.859896 0.22679,0 0.34091,-0.115566 0.25362,-0.256813 -0.0873,-0.141248 0.02,-0.602402 0.23841,-1.024789 0.21843,-0.422386 0.31259,-0.86169 0.20925,-0.976231 -0.10334,-0.114541 -0.0309,-0.117593 0.16088,-0.0068 0.19182,0.110811 0.2859,0.36531 0.20906,0.565553 -0.0768,0.200244 0.36153,-2.67e-4 0.97415,-0.44558 3.02335,-2.197657 6.83753,-2.41068 9.9774,-0.557241 0.65485,0.386548 1.27992,0.676356 1.38906,0.644016 0.10914,-0.03234 0.16909,0.0305 0.13322,0.139638 -0.0359,0.10914 0.24533,0.615156 0.62491,1.124479 2.44619,3.28231 1.08775,8.23044 -2.68903,9.794833 -0.54981,0.227739 -0.72389,0.422348 -0.54121,0.605028 0.52659,0.526598 2.99473,-1.619276 4.18253,-3.636423 0.17674,-0.300152 0.32506,-0.426668 0.3296,-0.281147 0.0393,1.261093 -4.24424,5.159375 -5.66924,5.159375 -0.46414,0 -0.023,-0.501448 0.57272,-0.650954 0.68619,-0.172225 0.45148,-0.663859 -0.31693,-0.663859 -0.14552,0 -0.0942,0.107805 0.11398,0.239567 0.27829,0.176106 0.10424,0.291034 -0.65705,0.433851 -0.85172,0.159784 -0.94243,0.230679 -0.51086,0.399243 0.28862,0.112728 0.36891,0.213328 0.17842,0.223556 -0.19049,0.01023 -0.27749,0.130006 -0.19334,0.266174 0.0938,0.151811 -0.15586,0.158993 -0.64551,0.01857 -0.82962,-0.237932 -1.77048,0.290862 -1.44746,0.813521 0.0827,0.133789 0.11355,0.229441 0.0686,0.212561 -0.045,-0.01688 -0.29012,-0.08514 -0.54478,-0.151692 z m 3.44603,-2.867107 c 3.5735,-1.061216 5.9017,-4.797571 4.80741,-7.715055 -1.83924,-4.903583 -8.4203,-6.322206 -12.54175,-2.703518 -5.29536,4.649387 0.56745,12.54691 7.73434,10.418573 z"
       id="path1" /></g></svg>
